<?xml version="1.0" encoding="utf-8"?>
<!-- Generator: Adobe Illustrator 16.0.4, SVG Export Plug-In . SVG Version: 6.00 Build 0)  -->
<!DOCTYPE svg PUBLIC "-//W3C//DTD SVG 1.1//EN" "http://www.w3.org/Graphics/SVG/1.1/DTD/svg11.dtd">
<svg version="1.1" id="Layer_1" xmlns="http://www.w3.org/2000/svg" xmlns:xlink="http://www.w3.org/1999/xlink" x="0px" y="0px"
	 width="34px" height="32px" viewBox="0 0 34 32" enable-background="new 0 0 34 32" xml:space="preserve">
<g>
	<path fill="#FFFFFF" d="M1.016,0v6.107C15.273,6.118,26.865,17.729,26.875,32H33c-0.004-8.82-3.59-16.814-9.385-22.612
		C17.82,3.592,9.834,0.004,1.016,0 M1.004,10.882v6.11c3.987,0.002,7.762,1.57,10.586,4.396c2.821,2.817,4.382,6.598,4.39,10.6
		h0.002V32h6.134c-0.005-5.82-2.369-11.092-6.195-14.92C12.095,13.252,6.823,10.886,1.004,10.882 M2.248,30.721v-0.002H2.245
		L2.248,30.721z M8.254,24.734v0.002h0.002L8.254,24.734z M8.254,24.736c0.773,0.772,1.246,1.824,1.25,2.994
		c-0.004,1.168-0.477,2.217-1.248,2.987l-0.002,0.003c-0.774,0.77-1.83,1.239-3.006,1.239c-1.175,0-2.229-0.474-3-1.242
		C1.476,29.947,1,28.898,1,27.73c0-1.17,0.476-2.224,1.248-2.996v0.002c0.771-0.771,1.825-1.246,3-1.246
		C6.424,23.49,7.479,23.965,8.254,24.736"/>
</g>
</svg>
