<?xml version="1.0" encoding="utf-8"?>
<!-- Generator: Adobe Illustrator 16.0.4, SVG Export Plug-In . SVG Version: 6.00 Build 0)  -->
<!DOCTYPE svg PUBLIC "-//W3C//DTD SVG 1.1//EN" "http://www.w3.org/Graphics/SVG/1.1/DTD/svg11.dtd">
<svg version="1.1" id="Layer_1" xmlns="http://www.w3.org/2000/svg" xmlns:xlink="http://www.w3.org/1999/xlink" x="0px" y="0px"
	 width="864px" height="120px" viewBox="0 0 864 120" enable-background="new 0 0 864 120" xml:space="preserve">
<g>
	<path fill="#B0B3A2" d="M627.86,119.154v-2.35h-7.031v-13.656h-2.949v16.006H627.86z M602.302,117.141
		c-2.207,0-3.793-1.922-3.793-5.977c0-3.723,1.223-6.002,3.793-6.002c2.592,0,3.746,2.23,3.746,5.977
		C606.048,114.955,604.679,117.141,602.302,117.141 M602.302,119.418c4.01,0,6.887-3.383,6.887-8.279
		c0-5.186-2.779-8.301-6.934-8.301c-4.059,0-6.887,3.188-6.887,8.301C595.368,116.227,598.149,119.418,602.302,119.418
		 M580.702,117.141c-2.207,0-3.793-1.922-3.793-5.977c0-3.723,1.225-6.002,3.793-6.002c2.594,0,3.746,2.23,3.746,5.977
		C584.448,114.955,583.081,117.141,580.702,117.141 M580.702,119.418c4.01,0,6.887-3.383,6.887-8.279
		c0-5.186-2.781-8.301-6.934-8.301c-4.059,0-6.887,3.188-6.887,8.301C573.769,116.227,576.548,119.418,580.702,119.418
		 M556.077,119.154v-7.152h6.219v7.152h2.949v-16.006h-2.949v6.385h-6.219v-6.385h-2.949v16.006H556.077z M538.604,119.418
		c3.408,0,5.52-1.727,6.312-5.398l-2.689-0.527c-0.432,2.375-1.486,3.625-3.479,3.625c-2.232,0-3.6-1.945-3.6-5.857
		c0-4.035,1.367-6.002,3.623-6.002c1.871,0,2.783,1.08,3.264,3.455l2.809-0.504c-0.695-3.576-2.736-5.371-6.121-5.371
		c-4.029,0-6.764,3.043-6.764,8.494C531.96,116.371,534.622,119.418,538.604,119.418 M518.351,119.441
		c3.891,0,6.045-1.918,6.045-4.773c0-2.977-2.227-4.08-5.205-4.824c-2.592-0.648-4.105-0.986-4.105-2.738
		c0-1.176,1.25-1.943,2.762-1.943c1.754,0,3.002,0.814,3.506,2.398l2.566-0.791c-0.912-2.543-2.855-3.932-6.025-3.932
		c-3.479,0-5.758,1.844-5.758,4.412c0,3.41,2.758,4.201,5.303,4.85c2.066,0.527,4.059,0.984,4.059,2.809
		c0,1.344-1.273,2.232-3.17,2.232c-2.592,0-3.672-1.033-4.416-2.809l-2.447,0.936C512.497,117.859,514.511,119.441,518.351,119.441
		 M480.334,119.154l2.664-10.104l0.264-1.031l0.287,1.031l2.736,10.104h2.713l3.959-16.006h-2.447l-2.424,10.486l-0.289,1.15
		l-0.287-1.15l-2.928-10.486h-2.352l-2.689,10.463l-0.336,1.15l-0.287-1.199l-2.592-10.414h-2.904l4.127,16.006H480.334z
		 M460.727,106.389l2.09,6.434h-4.057L460.727,106.389z M456.816,119.154l1.318-4.201h5.377l1.344,4.201H468l-5.328-16.006h-3.191
		l-5.209,16.006H456.816z M447.645,119.154v-2.35h-7.031v-13.656h-2.947v16.006H447.645z M406.918,105.498h2.617
		c2.712,0,4.467,2.23,4.467,5.641c0,3.576-1.874,5.715-4.467,5.715h-2.617V105.498z M403.97,119.154h5.926
		c4.346,0,7.15-3.455,7.15-8.016c0-2.521-0.767-4.777-2.303-6.193c-1.246-1.197-3-1.797-5.063-1.797h-5.71V119.154z
		 M385.702,105.473h3.674c1.683,0,2.618,0.816,2.618,2.211c0,1.488-0.983,2.328-2.857,2.328h-3.435V105.473z M385.702,119.154
		v-6.961h2.09c0.36,0,0.912,0,1.488-0.023l2.811,6.984h3.092l-3.116-7.488c1.966-0.598,2.972-2.062,2.972-4.031
		c0-2.617-1.941-4.486-5.277-4.486h-6.958v16.006H385.702z M367.8,106.389l2.088,6.434h-4.057L367.8,106.389z M363.888,119.154
		l1.319-4.201h5.376l1.345,4.201h3.144l-5.328-16.006h-3.191l-5.208,16.006H363.888z M351.384,119.154l5.256-16.006h-2.592
		l-3.336,10.629c-0.049,0.145-0.456,1.416-0.528,1.68c-0.048-0.264-0.504-1.584-0.528-1.68l-3.432-10.629h-3.12l5.328,16.006
		H351.384z M326.83,105.473h3.675c1.682,0,2.617,0.816,2.617,2.211c0,1.488-0.983,2.328-2.857,2.328h-3.435V105.473z
		 M326.83,119.154v-6.961h2.091c0.359,0,0.911,0,1.487-0.023l2.811,6.984h3.092l-3.116-7.488c1.966-0.598,2.972-2.062,2.972-4.031
		c0-2.617-1.941-4.486-5.277-4.486h-6.958v16.006H326.83z M308.928,106.389l2.088,6.434h-4.057L308.928,106.389z M305.016,119.154
		l1.32-4.201h5.376l1.344,4.201h3.144l-5.328-16.006h-3.191l-5.208,16.006H305.016z M285.552,119.154v-7.152h6.218v7.152h2.95
		v-16.006h-2.95v6.385h-6.218v-6.385h-2.95v16.006H285.552z M265.032,119.322c0.696,0,1.44-0.049,2.064-0.145v-2.039
		c-0.456,0.049-0.937,0.098-1.488,0.074c-0.936-0.074-1.512-0.625-1.512-1.705v-6.242h2.567v-1.965h-2.567v-3.359h-2.519
		l-0.168,3.359h-1.991v1.965h1.968v6.387C261.386,118.1,262.73,119.322,265.032,119.322 M250.368,117.451
		c-1.271,0-1.992-0.527-1.992-1.68c0-1.32,1.272-2.088,3.41-2.447c0.576-0.098,1.177-0.145,1.849-0.168v2.279
		C253.154,116.42,252.074,117.451,250.368,117.451 M249.288,119.297c2.139,0,3.41-0.67,4.395-1.822
		c-0.024,0.646,0.072,1.344,0.216,1.68h2.662c-0.216-0.602-0.264-1.584-0.264-2.305v-5.279c0-2.809-1.057-4.51-4.895-4.51
		c-3.146,0-5.088,1.199-5.568,3.453l2.542,0.264c0.288-1.271,1.177-1.752,2.858-1.752c1.584,0,2.208,0.6,2.353,1.729
		c0.048,0.215,0.048,0.551,0.048,0.84c-0.721,0.023-1.416,0.072-2.064,0.145c-3.722,0.432-6.048,1.68-6.048,4.295
		C245.522,118.123,247.128,119.297,249.288,119.297"/>
	<path fill="#FFFFFF" d="M858.567,41.499h-63.633c0-11.316,9.184-32.964,31.98-32.964C845.61,8.535,858.075,21.818,858.567,41.499
		 M862.011,44.615v-3.116c0-17.876-11.316-36.08-34.932-36.08c-20.172,0-35.916,16.236-35.916,39.196
		c0,23.779,15.252,40.836,37.557,40.836c12.955,0,22.959-5.248,30.34-14.76l-2.625-2.297c-6.723,8.855-16.072,13.775-27.715,13.775
		c-23.125,0-33.949-19.352-33.949-37.555H862.011z M785.571,15.423c-6.068-6.232-15.252-10.004-24.764-10.004
		c-22.141,0-38.377,16.892-38.377,40.18s16.236,39.853,38.377,39.853c9.02,0,18.531-2.789,25.092-9.348l-2.461-2.297
		c-5.904,5.576-14.268,8.527-22.631,8.527c-21.32,0-34.768-16.891-34.768-36.735c0-19.844,13.447-37.063,34.768-37.063
		c8.199,0,16.236,3.443,21.975,9.348L785.571,15.423z M693.241,27.559h-0.328c0-5.576-0.328-15.58-0.656-19.844h-3.607
		c0.492,4.264,0.82,14.268,0.82,19.024v56.415h3.607V44.123c0-16.564,8.035-35.588,27.061-35.588c0.492,0,1.311,0,2.131,0.164V5.583
		c-0.984-0.164-1.967-0.164-2.951-0.164C708.165,5.419,697.505,11.979,693.241,27.559 M662.065,63.311h0.328
		c0,5.576,0.328,15.58,0.656,19.844h3.609c-0.494-4.264-0.822-14.268-0.822-19.023V7.715h-3.605v37.72
		c0,23.124-13.449,36.899-30.014,36.899c-19.023,0-23.617-16.891-23.617-29.355V7.715h-3.607v45.592
		c0,15.744,6.234,32.145,27.225,32.145C645.175,85.451,657.474,77.414,662.065,63.311 M584.675,45.271
		c0,20.337-13.775,37.063-35.916,37.063s-35.752-16.727-35.752-37.063c0-20.336,13.611-36.735,35.752-36.735
		S584.675,24.935,584.675,45.271 M588.282,45.271c0-23.452-16.234-39.852-39.523-39.852c-23.123,0-39.359,16.399-39.359,39.852
		s16.236,40.181,39.359,40.181C572.048,85.451,588.282,68.723,588.282,45.271 M498.379,63.475c0-13.448-10.988-17.712-22.961-20.828
		c-12.627-3.279-21.32-5.084-21.32-18.04c0-11.972,11.316-16.071,19.516-16.071c8.857,0,15.088,3.115,20.008,9.676l3.117-1.804
		c-5.084-7.217-12.957-10.988-23.125-10.988c-11.479,0-23.123,6.396-23.123,19.352c0,13.12,8.855,16.893,19.844,19.845
		c10.168,2.787,24.436,5.248,24.436,19.188c0,11.973-11.152,18.203-20.828,18.203c-10.332,0-18.203-3.936-23.615-11.479
		l-2.951,1.967c5.902,8.201,15.252,12.629,26.402,12.629C487.227,85.123,498.379,76.922,498.379,63.475 M397.369,29.635l7.08,21.36
		h-13.08L397.369,29.635z M382.369,83.154l4.439-15.719h23.16l5.28,15.719h25.919L413.329,3.115h-25.08l-26.28,80.039H382.369z
		 M354.313,3.115h-24.601v80.039h24.601V3.115z M270.048,20.515h11.28c6.12,0,9.36,3.12,9.36,7.68c0,4.921-3.721,7.681-10.2,7.681
		h-10.44V20.515z M270.048,83.154v-30.6l5.641-0.12l2.88,0.12l11.64,30.6h26.4l-14.4-34.92c9.72-4.319,14.16-10.319,14.16-21.119
		c0-14.761-10.92-24-29.16-24h-41.76v80.039H270.048z M194.031,29.635l7.08,21.36h-13.08L194.031,29.635z M179.031,83.154
		l4.439-15.719h23.16l5.28,15.719h25.92l-27.84-80.039h-25.08l-26.28,80.039H179.031z M107.63,83.154V52.075h18.72v31.079h24.48
		V3.115h-24.48v29.52h-18.72V3.115h-24.6v80.039H107.63z M38.237,84.115c23.16,0,33.359-10.68,33.359-24.96
		c0-18.24-13.56-22.561-25.439-25.08c-9.24-2.04-17.4-3-17.4-8.641c0-3.359,2.88-5.16,8.521-5.16c6,0,10.08,1.92,12.359,7.32
		l20.28-6.24c-4.56-11.76-14.4-19.68-32.28-19.68c-21.239,0-33.239,10.2-33.239,24.48c0,18.239,14.399,22.439,26.64,25.319
		c9,2.04,16.8,3.24,16.8,8.881c0,3.959-3.84,5.76-10.32,5.76c-9,0-13.8-3.961-16.68-10.801l-18.84,7.201
		C6.197,73.676,14.957,84.115,38.237,84.115"/>
</g>
</svg>
