<?xml version="1.0" encoding="utf-8"?>
<!-- Generator: Adobe Illustrator 16.0.4, SVG Export Plug-In . SVG Version: 6.00 Build 0)  -->
<!DOCTYPE svg PUBLIC "-//W3C//DTD SVG 1.1//EN" "http://www.w3.org/Graphics/SVG/1.1/DTD/svg11.dtd">
<svg version="1.1" id="Layer_1" xmlns="http://www.w3.org/2000/svg" xmlns:xlink="http://www.w3.org/1999/xlink" x="0px" y="0px"
	 width="24px" height="18px" viewBox="0 0 24 18" enable-background="new 0 0 24 18" xml:space="preserve">
<g>
	<path fill="#B2AEA6" d="M10.975,1.138C7.67,6.722,4.025,11.506,0.037,15.494c0.045,0.271,0.199,0.62,0.461,1.042
		c0.262,0.422,0.543,0.688,0.838,0.804c0.184-0.113,1.668-1.322,4.461-3.624c2.791-2.302,4.859-4.146,6.204-5.535
		c0.728,0.749,2.534,2.369,5.416,4.852c2.884,2.482,4.632,3.92,5.248,4.308c0.296-0.114,0.575-0.382,0.836-0.804
		c0.265-0.422,0.416-0.771,0.462-1.042c-3.986-3.988-7.634-8.772-10.938-14.356c-0.317-0.318-0.66-0.479-1.023-0.479
		C11.637,0.659,11.295,0.819,10.975,1.138"/>
</g>
</svg>
