<?xml version="1.0" encoding="utf-8"?>
<!-- Generator: Adobe Illustrator 16.0.4, SVG Export Plug-In . SVG Version: 6.00 Build 0)  -->
<!DOCTYPE svg PUBLIC "-//W3C//DTD SVG 1.1//EN" "http://www.w3.org/Graphics/SVG/1.1/DTD/svg11.dtd">
<svg version="1.1" id="Layer_1" xmlns="http://www.w3.org/2000/svg" xmlns:xlink="http://www.w3.org/1999/xlink" x="0px" y="0px"
	 width="24px" height="18px" viewBox="0 0 24 18" enable-background="new 0 0 24 18" xml:space="preserve">
<g>
	<path fill="#007EA7" d="M13.025,16.861c3.305-5.584,6.949-10.368,10.938-14.356c-0.045-0.271-0.199-0.62-0.461-1.042
		s-0.543-0.689-0.838-0.804c-0.184,0.114-1.668,1.322-4.461,3.624c-2.791,2.302-4.859,4.146-6.204,5.535
		c-0.728-0.749-2.534-2.369-5.416-4.852c-2.884-2.483-4.632-3.92-5.248-4.308C1.039,0.773,0.76,1.041,0.499,1.463
		C0.235,1.885,0.083,2.233,0.037,2.505c3.986,3.988,7.634,8.772,10.938,14.356c0.317,0.318,0.66,0.479,1.023,0.479
		C12.363,17.34,12.705,17.18,13.025,16.861"/>
</g>
</svg>
