<?xml version="1.0" encoding="utf-8"?>
<!-- Generator: Adobe Illustrator 16.0.4, SVG Export Plug-In . SVG Version: 6.00 Build 0)  -->
<!DOCTYPE svg PUBLIC "-//W3C//DTD SVG 1.1//EN" "http://www.w3.org/Graphics/SVG/1.1/DTD/svg11.dtd">
<svg version="1.1" id="Layer_1" xmlns="http://www.w3.org/2000/svg" xmlns:xlink="http://www.w3.org/1999/xlink" x="0px" y="0px"
	 width="64px" height="64px" viewBox="0 0 64 64" enable-background="new 0 0 64 64" xml:space="preserve">
<g>
	<path fill="#861216" d="M47.453,31.998c0,0.59-0.256,1.141-0.773,1.654c-9.004,5.33-16.725,11.213-23.154,17.645
		c-0.442-0.074-1.002-0.322-1.683-0.744c-0.682-0.424-1.111-0.873-1.296-1.352c0.626-0.994,2.942-3.812,6.946-8.463
		c4.006-4.65,6.618-7.562,7.831-8.74c-2.243-2.168-5.219-5.502-8.934-10.006c-3.712-4.502-5.659-6.9-5.844-7.195
		c0.185-0.477,0.614-0.928,1.296-1.35c0.681-0.422,1.24-0.67,1.683-0.744c6.43,6.432,14.15,12.312,23.154,17.643
		C47.197,30.861,47.453,31.412,47.453,31.998"/>
	<path fill="#DDD8CD" d="M32,62c16.543,0,30-13.457,30-30S48.543,2,32,2C15.458,2,2,15.457,2,32S15.458,62,32,62 M32,0
		c17.645,0,32,14.355,32,32S49.645,64,32,64C14.356,64,0,49.645,0,32S14.356,0,32,0"/>
</g>
</svg>
