<?xml version="1.0" encoding="utf-8"?>
<!-- Generator: Adobe Illustrator 16.0.4, SVG Export Plug-In . SVG Version: 6.00 Build 0)  -->
<!DOCTYPE svg PUBLIC "-//W3C//DTD SVG 1.1//EN" "http://www.w3.org/Graphics/SVG/1.1/DTD/svg11.dtd">
<svg version="1.1" id="Layer_1" xmlns="http://www.w3.org/2000/svg" xmlns:xlink="http://www.w3.org/1999/xlink" x="0px" y="0px"
	 width="64px" height="64px" viewBox="0 0 64 64" enable-background="new 0 0 64 64" xml:space="preserve">
<path fill="#861216" d="M23.547,32.002c0-0.519,0.225-1.006,0.68-1.457C32.16,25.848,38.961,20.665,44.625,15
	c0.391,0.065,0.884,0.281,1.484,0.654c0.601,0.375,0.979,0.771,1.141,1.19c-0.553,0.877-2.592,3.359-6.119,7.458
	c-3.529,4.096-5.83,6.661-6.899,7.699c1.976,1.91,4.597,4.848,7.87,8.814c3.271,3.967,4.986,6.08,5.149,6.339
	c-0.163,0.421-0.54,0.817-1.142,1.188c-0.6,0.373-1.092,0.592-1.482,0.656c-5.666-5.666-12.466-10.848-20.4-15.543
	C23.771,33.004,23.547,32.518,23.547,32.002"/>
<path fill="#861216" d="M32,2C15.457,2,2,15.457,2,32s13.457,30,30,30c16.542,0,30-13.457,30-30S48.542,2,32,2 M32,64
	C14.355,64,0,49.645,0,32S14.355,0,32,0s32,14.355,32,32S49.645,64,32,64"/>
<path fill="#861216" d="M16.172,18.51c-0.155,0.215-0.281,0.598-0.281,0.86v25.256c0,0.257,0.126,0.643,0.281,0.854l1.001,1.364
	c0.16,0.209,0.408,0.209,0.562-0.008l0.985-1.358c0.151-0.209,0.28-0.595,0.28-0.852V19.367c0-0.256-0.125-0.638-0.28-0.852
	l-1.011-1.357c-0.145-0.211-0.405-0.211-0.556,0L16.172,18.51z"/>
</svg>
