<?xml version="1.0" encoding="utf-8"?>
<!-- Generator: Adobe Illustrator 16.0.4, SVG Export Plug-In . SVG Version: 6.00 Build 0)  -->
<!DOCTYPE svg PUBLIC "-//W3C//DTD SVG 1.1//EN" "http://www.w3.org/Graphics/SVG/1.1/DTD/svg11.dtd">
<svg version="1.1" id="Layer_1" xmlns="http://www.w3.org/2000/svg" xmlns:xlink="http://www.w3.org/1999/xlink" x="0px" y="0px"
	 width="96px" height="96px" viewBox="0 0 96 96" enable-background="new 0 0 96 96" xml:space="preserve">
<path fill="#FDAF00" d="M67.766,74.52c0,0.576-0.242,1.045-0.535,1.045H28.771c-0.298,0-0.538-0.469-0.538-1.045v-53.04
	c0-0.578,0.24-1.046,0.538-1.046H67.23c0.293,0,0.535,0.468,0.535,1.046V74.52z"/>
<path fill="#FFFFFF" d="M31.101,73.25c-0.312,0-0.568-0.256-0.568-0.568V23.314c0-0.312,0.257-0.568,0.568-0.568h33.798
	c0.312,0,0.568,0.256,0.568,0.568v49.367c0,0.312-0.256,0.568-0.568,0.568H31.101z"/>
<rect x="22.578" y="40.868" fill="#FDAF00" width="50.844" height="10.261"/>
<g>
	<path fill="#FFFFFF" d="M54.828,43.387c-1.441,0-2.615,1.172-2.615,2.614c0,1.441,1.174,2.612,2.615,2.612s2.611-1.171,2.611-2.612
		C57.439,44.559,56.27,43.387,54.828,43.387"/>
	<path fill="#FFFFFF" d="M61.936,43.387c-1.443,0-2.613,1.172-2.613,2.614c0,1.441,1.17,2.612,2.613,2.612
		c1.439,0,2.611-1.171,2.611-2.612C64.547,44.559,63.375,43.387,61.936,43.387"/>
</g>
<path fill="#FDAF00" d="M48,2C22.636,2,2,22.634,2,48c0,25.365,20.636,46,46,46c25.363,0,46-20.635,46-46C94,22.634,73.363,2,48,2
	 M48,96C21.534,96,0,74.467,0,48C0,21.534,21.534,0,48,0c26.467,0,48,21.534,48,48C96,74.467,74.467,96,48,96"/>
<path fill="#FDAF00" d="M36.915,56.109c0.178,0.117,0.492,0.217,0.708,0.217h20.756c0.211,0,0.527-0.1,0.701-0.219l1.121-0.77
	c0.172-0.123,0.172-0.316-0.006-0.434l-1.117-0.758c-0.172-0.117-0.488-0.215-0.699-0.215H37.621c-0.212,0-0.526,0.096-0.7,0.215
	l-1.116,0.777c-0.174,0.113-0.174,0.312,0,0.43L36.915,56.109z"/>
<path fill="#FDAF00" d="M36.915,62.434c0.178,0.117,0.492,0.215,0.708,0.215h20.756c0.211,0,0.527-0.098,0.701-0.217l1.121-0.77
	c0.172-0.123,0.172-0.316-0.006-0.436l-1.117-0.756c-0.172-0.119-0.488-0.215-0.699-0.215H37.621c-0.212,0-0.526,0.094-0.7,0.215
	l-1.116,0.773c-0.174,0.117-0.174,0.316,0,0.434L36.915,62.434z"/>
<path fill="#FDAF00" d="M36.915,68.762c0.178,0.117,0.492,0.213,0.708,0.213h20.756c0.211,0,0.527-0.096,0.701-0.217l1.121-0.77
	c0.172-0.123,0.172-0.316-0.006-0.434l-1.117-0.756c-0.172-0.121-0.488-0.217-0.699-0.217H37.621c-0.212,0-0.526,0.094-0.7,0.217
	l-1.116,0.771c-0.174,0.119-0.174,0.316,0,0.434L36.915,68.762z"/>
</svg>
