<?xml version="1.0" encoding="utf-8"?>
<!-- Generator: Adobe Illustrator 16.0.4, SVG Export Plug-In . SVG Version: 6.00 Build 0)  -->
<!DOCTYPE svg PUBLIC "-//W3C//DTD SVG 1.1//EN" "http://www.w3.org/Graphics/SVG/1.1/DTD/svg11.dtd">
<svg version="1.1" id="Layer_1" xmlns="http://www.w3.org/2000/svg" xmlns:xlink="http://www.w3.org/1999/xlink" x="0px" y="0px"
	 width="64px" height="64px" viewBox="0 0 64 64" enable-background="new 0 0 64 64" xml:space="preserve">
<g>
	<path fill="#007EA7" d="M16.547,32.002c0-0.59,0.256-1.141,0.771-1.654c9.007-5.33,16.727-11.213,23.156-17.645
		c0.443,0.074,1.002,0.322,1.682,0.744c0.684,0.424,1.113,0.873,1.297,1.352c-0.625,0.994-2.941,3.812-6.945,8.463
		c-4.007,4.65-6.619,7.562-7.831,8.74c2.242,2.168,5.218,5.502,8.933,10.006c3.711,4.502,5.66,6.9,5.844,7.195
		c-0.184,0.477-0.613,0.928-1.297,1.35c-0.68,0.422-1.238,0.67-1.682,0.744c-6.43-6.432-14.149-12.312-23.156-17.643
		C16.803,33.139,16.547,32.588,16.547,32.002"/>
	<path fill="#007EA7" d="M32,2C15.458,2,2,15.457,2,32s13.458,30,30,30c16.543,0,30-13.457,30-30S48.543,2,32,2 M32,64
		C14.356,64,0,49.645,0,32S14.356,0,32,0c17.645,0,32,14.355,32,32S49.645,64,32,64"/>
</g>
</svg>
