<?xml version="1.0" encoding="utf-8"?>
<!-- Generator: Adobe Illustrator 16.0.4, SVG Export Plug-In . SVG Version: 6.00 Build 0)  -->
<!DOCTYPE svg PUBLIC "-//W3C//DTD SVG 1.1//EN" "http://www.w3.org/Graphics/SVG/1.1/DTD/svg11.dtd">
<svg version="1.1" id="Layer_1" xmlns="http://www.w3.org/2000/svg" xmlns:xlink="http://www.w3.org/1999/xlink" x="0px" y="0px"
	 width="96px" height="96px" viewBox="0 0 96 96" enable-background="new 0 0 96 96" xml:space="preserve">
<g>
	<path fill="#007EA7" d="M40.895,33.604v6.608h-4.842v8.082h4.842v24.014h9.945V48.295h6.676c0,0,0.623-3.876,0.928-8.112h-7.564
		v-5.525c0-0.824,1.084-1.937,2.156-1.937h5.418v-8.412h-7.369C40.648,24.309,40.895,32.396,40.895,33.604"/>
	<path fill="#007EA7" d="M48,2C22.634,2,2,22.634,2,48c0,25.365,20.634,46,46,46c25.365,0,46-20.635,46-46C94,22.634,73.365,2,48,2
		 M48,96C21.534,96,0,74.467,0,48C0,21.534,21.534,0,48,0c26.467,0,48,21.534,48,48C96,74.467,74.467,96,48,96"/>
</g>
</svg>
