<?xml version="1.0" encoding="utf-8"?>
<!-- Generator: Adobe Illustrator 16.0.4, SVG Export Plug-In . SVG Version: 6.00 Build 0)  -->
<!DOCTYPE svg PUBLIC "-//W3C//DTD SVG 1.1//EN" "http://www.w3.org/Graphics/SVG/1.1/DTD/svg11.dtd">
<svg version="1.1" id="Layer_1" xmlns="http://www.w3.org/2000/svg" xmlns:xlink="http://www.w3.org/1999/xlink" x="0px" y="0px"
	 width="96px" height="96px" viewBox="0 0 96 96" enable-background="new 0 0 96 96" xml:space="preserve">
<g>
	<path fill="#007EA7" d="M48.002,2C22.636,2,2,22.636,2,48c0,25.363,20.636,46,46.002,46C73.365,94,94,73.363,94,48
		C94,22.636,73.365,2,48.002,2 M48.002,96C21.534,96,0,74.469,0,48C0,21.532,21.534,0,48.002,0C74.469,0,96,21.532,96,48
		C96,74.469,74.469,96,48.002,96"/>
	<path fill="#007EA7" d="M47.566,54.895c0.24,0.209,0.631,0.209,0.871,0l7.84-6.826c0.238-0.209,0.607-0.186,0.818,0.049
		l13.459,14.988c0.211,0.234,0.125,0.428-0.191,0.428H25.816c-0.317,0-0.401-0.191-0.189-0.426L39.085,48.27
		c0.214-0.234,0.582-0.256,0.821-0.047L47.566,54.895z M25.757,32.85c-0.24-0.208-0.176-0.378,0.14-0.378h44.35
		c0.318,0,0.381,0.17,0.143,0.376L48.451,51.852c-0.238,0.207-0.631,0.207-0.87-0.002L25.757,32.85z M23.093,62.51
		c-0.212,0.234-0.386,0.166-0.386-0.15V33.537c0-0.315,0.193-0.404,0.43-0.194l14.2,12.606c0.235,0.21,0.256,0.574,0.044,0.808
		L23.093,62.51z M58.904,46.728c-0.209-0.236-0.189-0.604,0.045-0.818l13.926-12.554c0.234-0.212,0.428-0.126,0.428,0.189v28.758
		c0,0.316-0.174,0.383-0.385,0.146L58.904,46.728z M21.097,30.287c-0.318,0-0.576,0.26-0.576,0.576v34.273
		c0,0.316,0.258,0.576,0.576,0.576h53.81c0.318,0,0.576-0.26,0.576-0.576V30.863c0-0.316-0.258-0.576-0.576-0.576H21.097z"/>
</g>
</svg>
