<?xml version="1.0" encoding="utf-8"?>
<!-- Generator: Adobe Illustrator 16.0.4, SVG Export Plug-In . SVG Version: 6.00 Build 0)  -->
<!DOCTYPE svg PUBLIC "-//W3C//DTD SVG 1.1//EN" "http://www.w3.org/Graphics/SVG/1.1/DTD/svg11.dtd">
<svg version="1.1" id="Layer_1" xmlns="http://www.w3.org/2000/svg" xmlns:xlink="http://www.w3.org/1999/xlink" x="0px" y="0px"
	 width="64px" height="64px" viewBox="0 0 64 64" enable-background="new 0 0 64 64" xml:space="preserve">
<path fill="#273043" d="M39.453,31.998c0,0.519-0.225,1.006-0.68,1.457C30.84,38.152,24.039,43.335,18.375,49
	c-0.39-0.065-0.883-0.281-1.483-0.654c-0.601-0.375-0.979-0.771-1.141-1.19c0.553-0.877,2.592-3.359,6.119-7.458
	c3.53-4.096,5.831-6.661,6.9-7.699c-1.976-1.91-4.597-4.847-7.871-8.815c-3.27-3.966-4.986-6.079-5.149-6.338
	c0.163-0.421,0.54-0.818,1.141-1.188c0.6-0.373,1.092-0.591,1.483-0.656c5.666,5.667,12.465,10.847,20.4,15.543
	C39.229,30.996,39.453,31.482,39.453,31.998"/>
<path fill="#DDD8CD" d="M32,62c16.543,0,30-13.457,30-30S48.543,2,32,2C15.458,2,2,15.457,2,32S15.458,62,32,62 M32,0
	c17.645,0,32,14.355,32,32c0,17.645-14.355,32-32,32C14.356,64,0,49.645,0,32C0,14.355,14.356,0,32,0"/>
<path fill="#273043" d="M46.828,45.49c0.155-0.215,0.281-0.598,0.281-0.86V19.374c0-0.257-0.126-0.643-0.281-0.854l-1.001-1.365
	c-0.16-0.209-0.408-0.209-0.562,0.008l-0.985,1.359c-0.151,0.209-0.28,0.594-0.28,0.852v25.259c0,0.256,0.125,0.638,0.28,0.852
	l1.011,1.357c0.145,0.211,0.405,0.211,0.556,0L46.828,45.49z"/>
</svg>
