<?xml version="1.0" encoding="utf-8"?>
<!-- Generator: Adobe Illustrator 16.0.4, SVG Export Plug-In . SVG Version: 6.00 Build 0)  -->
<!DOCTYPE svg PUBLIC "-//W3C//DTD SVG 1.1//EN" "http://www.w3.org/Graphics/SVG/1.1/DTD/svg11.dtd">
<svg version="1.1" id="Layer_1" xmlns="http://www.w3.org/2000/svg" xmlns:xlink="http://www.w3.org/1999/xlink" x="0px" y="0px"
	 width="96px" height="96px" viewBox="0 0 96 96" enable-background="new 0 0 96 96" xml:space="preserve">
<g>
	<path fill="#861216" d="M70.248,46.668c3.145-0.26,5.277-1.689,6.1-3.629c-1.137,0.697-4.658,1.457-6.602,0.734
		c-0.098-0.459-0.203-0.893-0.307-1.285c-1.482-5.441-6.557-9.826-11.875-9.295c0.434-0.174,0.869-0.336,1.303-0.48
		c0.586-0.211,4.018-0.77,3.479-1.982c-0.457-1.064-4.65,0.807-5.439,1.053c1.041-0.393,2.768-1.068,2.949-2.268
		c-1.596,0.221-3.164,0.977-4.377,2.074c0.439-0.471,0.771-1.045,0.842-1.662c-4.264,2.721-6.752,8.209-8.766,13.533
		c-1.582-1.533-2.984-2.74-4.242-3.41c-3.527-1.893-7.746-3.867-14.367-6.324c-0.203,2.189,1.084,5.104,4.789,7.039
		c-0.801-0.105-2.27,0.135-3.445,0.414c0.48,2.512,2.039,4.578,6.273,5.578c-1.936,0.129-2.934,0.568-3.84,1.516
		c0.881,1.744,3.027,3.801,6.893,3.379c-4.295,1.852-1.75,5.281,1.746,4.77c-5.963,6.162-15.369,5.709-20.77,0.557
		c14.1,19.213,44.752,11.361,49.318-7.145c3.422,0.027,5.434-1.186,6.682-2.523C74.619,47.645,71.764,47.301,70.248,46.668"/>
	<path fill="#DDD8CD" d="M48,2C22.633,2,2,22.633,2,48c0,25.365,20.633,46,46,46c25.365,0,46-20.635,46-46C94,22.633,73.365,2,48,2
		 M48,96C21.535,96,0,74.465,0,48C0,21.533,21.535,0,48,0c26.467,0,48,21.533,48,48C96,74.465,74.467,96,48,96"/>
</g>
</svg>
