<?xml version="1.0" encoding="utf-8"?>
<!-- Generator: Adobe Illustrator 16.0.4, SVG Export Plug-In . SVG Version: 6.00 Build 0)  -->
<!DOCTYPE svg PUBLIC "-//W3C//DTD SVG 1.1//EN" "http://www.w3.org/Graphics/SVG/1.1/DTD/svg11.dtd">
<svg version="1.1" id="Layer_1" xmlns="http://www.w3.org/2000/svg" xmlns:xlink="http://www.w3.org/1999/xlink" x="0px" y="0px"
	 width="30px" height="24px" viewBox="0 0 30 24" enable-background="new 0 0 30 24" xml:space="preserve">
<g>
	<path fill="#007EA7" d="M29.254,10.975c-5.586-3.304-10.367-6.95-14.356-10.937c-0.273,0.046-0.622,0.199-1.042,0.462
		c-0.422,0.262-0.689,0.542-0.804,0.838c0.114,0.182,1.322,1.668,3.624,4.459c2.301,2.792,4.145,4.859,5.535,6.203
		c-0.75,0.729-2.371,2.535-4.852,5.416c-2.485,2.885-3.919,4.633-4.307,5.248c0.114,0.297,0.382,0.576,0.804,0.836
		c0.42,0.266,0.769,0.416,1.042,0.463c3.989-3.986,8.77-7.635,14.356-10.938c0.316-0.318,0.477-0.66,0.477-1.025
		C29.73,11.637,29.57,11.295,29.254,10.975 M16.469,10.975C10.886,7.671,6.103,4.024,2.114,0.038C1.843,0.083,1.495,0.237,1.072,0.5
		C0.65,0.761,0.383,1.042,0.269,1.337c0.114,0.182,1.322,1.668,3.624,4.459C6.194,8.589,8.039,10.656,9.428,12
		c-0.75,0.729-2.37,2.535-4.851,5.416c-2.484,2.885-3.921,4.633-4.309,5.248C0.383,22.961,0.65,23.24,1.072,23.5
		c0.423,0.266,0.771,0.416,1.042,0.463c3.988-3.986,8.772-7.635,14.354-10.938c0.32-0.318,0.48-0.66,0.48-1.025
		C16.949,11.637,16.789,11.295,16.469,10.975"/>
</g>
</svg>
