<?xml version="1.0" encoding="utf-8"?>
<!-- Generator: Adobe Illustrator 16.0.4, SVG Export Plug-In . SVG Version: 6.00 Build 0)  -->
<!DOCTYPE svg PUBLIC "-//W3C//DTD SVG 1.1//EN" "http://www.w3.org/Graphics/SVG/1.1/DTD/svg11.dtd">
<svg version="1.1" id="Layer_1" xmlns="http://www.w3.org/2000/svg" xmlns:xlink="http://www.w3.org/1999/xlink" x="0px" y="0px"
	 width="520px" height="80px" viewBox="0 0 520 80" enable-background="new 0 0 520 80" xml:space="preserve">
<g>
	<path fill="#B0B3A2" d="M293.015,77.81v-1.762h-5.273V65.806h-2.213V77.81H293.015z M273.845,76.3c-1.656,0-2.846-1.439-2.846-4.48
		c0-2.793,0.918-4.504,2.846-4.504c1.945,0,2.811,1.676,2.811,4.484C276.655,74.663,275.628,76.3,273.845,76.3 M273.845,78.009
		c3.008,0,5.166-2.537,5.166-6.209c0-3.889-2.086-6.227-5.203-6.227c-3.041,0-5.164,2.391-5.164,6.227
		C268.644,75.616,270.729,78.009,273.845,78.009 M257.645,76.3c-1.656,0-2.845-1.439-2.845-4.48c0-2.793,0.918-4.504,2.845-4.504
		c1.945,0,2.81,1.676,2.81,4.484C260.454,74.663,259.429,76.3,257.645,76.3 M257.645,78.009c3.008,0,5.166-2.537,5.166-6.209
		c0-3.889-2.086-6.227-5.202-6.227c-3.042,0-5.164,2.391-5.164,6.227C252.444,75.616,254.53,78.009,257.645,78.009 M239.176,77.81
		v-5.363h4.664v5.363h2.212V65.806h-2.212v4.789h-4.664v-4.789h-2.212V77.81H239.176z M226.072,78.009
		c2.556,0,4.14-1.295,4.734-4.049l-2.017-0.396c-0.324,1.783-1.116,2.719-2.609,2.719c-1.675,0-2.7-1.457-2.7-4.393
		c0-3.025,1.025-4.502,2.718-4.502c1.404,0,2.088,0.811,2.448,2.592l2.105-0.377c-0.521-2.682-2.052-4.029-4.59-4.029
		c-3.023,0-5.074,2.283-5.074,6.371C221.088,75.724,223.084,78.009,226.072,78.009 M210.88,78.026c2.918,0,4.536-1.438,4.536-3.58
		c0-2.232-1.672-3.061-3.903-3.619c-1.946-0.486-3.08-0.738-3.08-2.053c0-0.883,0.936-1.459,2.069-1.459
		c1.316,0,2.252,0.613,2.63,1.801l1.925-0.594c-0.685-1.908-2.141-2.949-4.519-2.949c-2.609,0-4.317,1.383-4.317,3.309
		c0,2.559,2.067,3.152,3.976,3.639c1.55,0.396,3.044,0.738,3.044,2.105c0,1.008-0.954,1.674-2.378,1.674
		c-1.944,0-2.754-0.773-3.312-2.105l-1.834,0.701C206.49,76.841,208,78.026,210.88,78.026 M182.37,77.81l1.998-7.576l0.198-0.773
		l0.216,0.773l2.052,7.576h2.034l2.97-12.004h-1.836l-1.817,7.865l-0.217,0.863l-0.216-0.863l-2.195-7.865h-1.765l-2.016,7.848
		l-0.252,0.863l-0.216-0.9l-1.944-7.811h-2.178l3.096,12.004H182.37z M167.664,68.237l1.566,4.822h-3.042L167.664,68.237z
		 M164.73,77.81l0.99-3.148h4.031l1.008,3.148h2.358l-3.996-12.004h-2.394l-3.906,12.004H164.73z M157.853,77.81v-1.762h-5.274
		V65.806h-2.212V77.81H157.853z M127.307,67.569h1.964c2.034,0,3.35,1.674,3.35,4.23c0,2.682-1.406,4.285-3.35,4.285h-1.964V67.569z
		 M125.097,77.81h4.443c3.26,0,5.362-2.59,5.362-6.01c0-1.891-0.574-3.584-1.727-4.645c-0.934-0.898-2.25-1.35-3.798-1.35h-4.281
		V77.81z M111.394,67.55h2.756c1.26,0,1.964,0.613,1.964,1.658c0,1.117-0.74,1.746-2.144,1.746h-2.576V67.55z M111.394,77.81v-5.219
		h1.567c0.271,0,0.685,0,1.116-0.018l2.108,5.236h2.318l-2.336-5.615c1.475-0.447,2.229-1.547,2.229-3.021
		c0-1.965-1.456-3.367-3.958-3.367h-5.218V77.81H111.394z M97.967,68.237l1.566,4.822h-3.042L97.967,68.237z M95.034,77.81
		l0.99-3.148h4.032l1.008,3.148h2.357l-3.996-12.004h-2.394L93.125,77.81H95.034z M85.656,77.81l3.942-12.004h-1.944l-2.502,7.973
		c-0.036,0.107-0.342,1.062-0.396,1.26c-0.035-0.197-0.378-1.188-0.396-1.26l-2.574-7.973h-2.34l3.996,12.004H85.656z M67.242,67.55
		h2.754c1.262,0,1.964,0.613,1.964,1.658c0,1.117-0.739,1.746-2.144,1.746h-2.574V67.55z M67.242,77.81v-5.219h1.566
		c0.27,0,0.684,0,1.115-0.018l2.108,5.236h2.32l-2.338-5.615c1.474-0.447,2.229-1.547,2.229-3.021c0-1.965-1.458-3.367-3.96-3.367
		h-5.218V77.81H67.242z M53.814,68.237l1.565,4.822h-3.042L53.814,68.237z M50.879,77.81l0.99-3.148h4.032l1.008,3.148h2.358
		l-3.996-12.004h-2.395L48.972,77.81H50.879z M36.282,77.81v-5.363h4.664v5.363h2.212V65.806h-2.212v4.789h-4.664v-4.789H34.07
		V77.81H36.282z M20.892,77.937c0.521,0,1.08-0.037,1.548-0.107V76.3c-0.342,0.037-0.702,0.072-1.116,0.055
		c-0.702-0.055-1.134-0.469-1.134-1.277v-4.684h1.926v-1.473H20.19v-2.521h-1.889l-0.126,2.521h-1.493v1.473h1.476v4.791
		C18.158,77.021,19.164,77.937,20.892,77.937 M9.894,76.534c-0.954,0-1.494-0.396-1.494-1.26c0-0.99,0.954-1.566,2.558-1.836
		c0.433-0.072,0.882-0.107,1.387-0.127v1.711C11.984,75.761,11.173,76.534,9.894,76.534 M9.083,77.919
		c1.603,0,2.559-0.504,3.296-1.367c-0.018,0.484,0.055,1.006,0.162,1.258h1.996c-0.162-0.449-0.198-1.188-0.198-1.727v-3.961
		c0-2.105-0.792-3.381-3.672-3.381c-2.357,0-3.813,0.896-4.174,2.59L8.4,71.528c0.216-0.953,0.882-1.314,2.142-1.314
		c1.19,0,1.658,0.451,1.767,1.297c0.036,0.162,0.036,0.414,0.036,0.629c-0.54,0.02-1.062,0.055-1.551,0.109
		c-2.79,0.324-4.534,1.26-4.534,3.221C6.259,77.038,7.463,77.919,9.083,77.919"/>
	<path fill="#FFFFFF" d="M515.516,26.426h-37.247c0-6.623,5.375-19.295,18.72-19.295C507.934,7.131,515.229,14.907,515.516,26.426
		 M517.531,28.25v-1.824c0-10.463-6.623-21.119-20.447-21.119c-11.808,0-21.024,9.504-21.024,22.943
		c0,13.92,8.928,23.905,21.983,23.905c7.586,0,13.441-3.072,17.762-8.641l-1.535-1.344c-3.938,5.186-9.41,8.064-16.227,8.064
		c-13.536,0-19.872-11.329-19.872-21.985H517.531z M471.921,11.163c-3.551-3.648-8.926-5.855-14.494-5.855
		c-12.963,0-22.467,9.889-22.467,23.52c0,13.633,9.504,23.329,22.467,23.329c5.279,0,10.85-1.631,14.686-5.473l-1.439-1.344
		c-3.453,3.266-8.35,4.992-13.246,4.992c-12.482,0-20.354-9.887-20.354-21.504c0-11.615,7.871-21.695,20.354-21.695
		c4.799,0,9.502,2.016,12.861,5.473L471.921,11.163z M416.964,18.266h-0.191c0-3.264-0.193-9.119-0.385-11.615h-2.111
		c0.287,2.496,0.479,8.352,0.479,11.137v33.024h2.111V27.963c0-9.697,4.705-20.832,15.84-20.832c0.289,0,0.77,0,1.25,0.096V5.403
		c-0.578-0.096-1.152-0.096-1.729-0.096C425.698,5.307,419.46,9.147,416.964,18.266 M397.821,39.196h0.193
		c0,3.264,0.191,9.12,0.383,11.616h2.111c-0.287-2.496-0.479-8.352-0.479-11.137V6.651h-2.113v22.08
		c0,13.536-7.871,21.6-17.566,21.6c-11.137,0-13.824-9.887-13.824-17.184V6.651h-2.113v26.688c0,9.217,3.648,18.817,15.938,18.817
		C387.933,52.155,395.132,47.452,397.821,39.196 M351.675,28.635c0,11.904-8.062,21.696-21.023,21.696s-20.928-9.792-20.928-21.696
		s7.967-21.504,20.928-21.504S351.675,16.731,351.675,28.635 M353.788,28.635c0-13.729-9.504-23.328-23.137-23.328
		c-13.535,0-23.039,9.6-23.039,23.328c0,13.729,9.504,23.52,23.039,23.52C344.284,52.155,353.788,42.364,353.788,28.635
		 M300.335,39.292c0-7.873-6.432-10.369-13.439-12.193c-7.393-1.92-12.48-2.975-12.48-10.559c0-7.008,6.623-9.408,11.424-9.408
		c5.184,0,8.832,1.824,11.711,5.664l1.824-1.057c-2.975-4.225-7.582-6.432-13.535-6.432c-6.719,0-13.535,3.744-13.535,11.328
		c0,7.68,5.184,9.889,11.615,11.615c5.951,1.633,14.305,3.072,14.305,11.232c0,7.008-6.529,10.657-12.193,10.657
		c-6.047,0-10.656-2.305-13.824-6.721l-1.727,1.152c3.457,4.801,8.928,7.393,15.457,7.393
		C293.808,51.964,300.335,47.163,300.335,39.292 M240.02,18.7l4.248,12.814h-7.849L240.02,18.7z M231.02,50.812l2.664-9.433h13.896
		l3.168,9.433H266.3L249.596,2.788h-15.049l-15.768,48.024H231.02z M213.789,2.788h-14.76v48.024h14.76V2.788z M162.821,13.227
		h6.768c3.672,0,5.616,1.871,5.616,4.607c0,2.953-2.231,4.609-6.12,4.609h-6.264V13.227z M162.821,50.812v-18.36l3.384-0.072
		l1.729,0.072l6.983,18.36h15.84l-8.64-20.952c5.832-2.594,8.496-6.193,8.496-12.672c0-8.857-6.552-14.4-17.496-14.4h-25.056v48.024
		H162.821z M116.821,18.7l4.249,12.814h-7.848L116.821,18.7z M107.821,50.812l2.664-9.433h13.896l3.168,9.433h15.553L126.397,2.788
		h-15.048L95.581,50.812H107.821z M64.592,50.812V32.163h11.232v18.649h14.688V2.788H75.825v17.711H64.592V2.788h-14.76v48.024
		H64.592z M22.567,51.388c13.896,0,20.016-6.408,20.016-14.977c0-10.943-8.136-13.535-15.264-15.047
		c-5.544-1.225-10.44-1.801-10.44-5.186c0-2.016,1.729-3.096,5.112-3.096c3.6,0,6.048,1.152,7.416,4.393l12.168-3.744
		c-2.736-7.057-8.64-11.809-19.368-11.809c-12.744,0-19.943,6.121-19.943,14.689c0,10.943,8.64,13.463,15.983,15.191
		c5.4,1.225,10.08,1.943,10.08,5.328c0,2.375-2.304,3.455-6.192,3.455c-5.399,0-8.279-2.375-10.008-6.479L0.823,38.426
		C3.342,45.124,8.599,51.388,22.567,51.388"/>
</g>
</svg>
