<?xml version="1.0" standalone="no"?>
<!DOCTYPE svg PUBLIC "-//W3C//DTD SVG 20010904//EN"
 "http://www.w3.org/TR/2001/REC-SVG-20010904/DTD/svg10.dtd">
<svg version="1.0" xmlns="http://www.w3.org/2000/svg"
 width="500.000000pt" height="500.000000pt" viewBox="0 0 500.000000 500.000000"
 preserveAspectRatio="xMidYMid meet">
<metadata>
Created by potrace 1.13, written by Peter Selinger 2001-2015
</metadata>
<g transform="translate(0.000000,500.000000) scale(0.100000,-0.100000)"
fill="#FFFFFF" stroke="none">
<path fill="#FFFFFF" d="M2250 4988 c-52 -5 -161 -22 -243 -38 -1344 -271 -2221 -1579 -1961
-2924 96 -492 331 -934 688 -1292 720 -720 1794 -932 2735 -538 603 253 1097
752 1345 1359 187 459 233 949 135 1438 -233 1171 -1276 2017 -2469 2006 -74
-1 -178 -6 -230 -11z m570 -264 c413 -61 795 -231 1119 -498 l74 -61 -54 -7
c-152 -19 -260 -103 -321 -249 -18 -44 -22 -72 -22 -154 1 -141 30 -217 171
-448 167 -274 228 -461 226 -697 -1 -138 -22 -245 -98 -496 -30 -99 -107 -355
-172 -571 -64 -216 -120 -390 -123 -387 -3 3 -186 542 -406 1197 -268 796
-398 1194 -390 1198 6 4 62 10 125 13 123 8 173 22 190 54 14 27 14 65 0 96
-21 45 -50 49 -251 35 -238 -16 -623 -16 -866 0 -172 12 -195 12 -216 -3 -36
-23 -51 -76 -32 -120 18 -42 43 -51 199 -64 59 -5 109 -11 111 -13 1 -2 81
-218 176 -479 l173 -475 -244 -732 c-134 -403 -247 -729 -250 -725 -15 16
-810 2402 -804 2411 3 6 30 11 58 11 29 0 90 4 137 10 72 8 88 13 108 35 32
37 30 98 -4 132 -26 26 -27 26 -132 19 -389 -25 -672 -32 -672 -17 0 26 168
231 284 347 210 209 409 348 666 463 232 105 515 176 770 195 99 7 363 -4 470
-20z m1729 -1303 c214 -466 256 -1027 115 -1526 -154 -544 -519 -1025 -996
-1314 l-37 -22 28 83 c107 310 666 1922 695 2001 93 255 129 452 130 713 1
214 -2 211 65 65z m-3560 -1492 c290 -794 527 -1445 526 -1447 -1 -1 -43 20
-94 48 -190 103 -337 215 -507 384 -265 266 -433 537 -549 891 -162 490 -147
1017 43 1514 29 77 37 91 45 74 5 -11 246 -670 536 -1464z m1901 -586 c190
-521 345 -951 345 -957 0 -15 -160 -62 -308 -91 -192 -38 -396 -50 -580 -36
-182 14 -477 70 -477 90 -1 13 665 1941 670 1941 3 0 160 -426 350 -947z"/>
</g>
</svg>
