<?xml version="1.0" encoding="utf-8"?>
<!-- Generator: Adobe Illustrator 16.0.4, SVG Export Plug-In . SVG Version: 6.00 Build 0)  -->
<!DOCTYPE svg PUBLIC "-//W3C//DTD SVG 1.1//EN" "http://www.w3.org/Graphics/SVG/1.1/DTD/svg11.dtd">
<svg version="1.1" id="Layer_1" xmlns="http://www.w3.org/2000/svg" xmlns:xlink="http://www.w3.org/1999/xlink" x="0px" y="0px"
	 width="260px" height="38px" viewBox="0 1 260 38" enable-background="new 0 1 260 38" xml:space="preserve">
<g>
	<path fill="#B0B3A2" d="M147.027,38.894v-0.88h-2.656v-5.114h-1.109v5.994H147.027z M137.381,38.138
		c-0.834,0-1.432-0.717-1.432-2.236c0-1.396,0.461-2.251,1.432-2.251c0.979,0,1.413,0.838,1.413,2.241
		C138.793,37.319,138.275,38.138,137.381,38.138 M137.381,38.992c1.514,0,2.6-1.265,2.6-3.101c0-1.94-1.051-3.111-2.617-3.111
		c-1.529,0-2.6,1.197-2.6,3.111C134.764,37.797,135.812,38.992,137.381,38.992 M129.229,38.138c-0.832,0-1.433-0.717-1.433-2.236
		c0-1.396,0.463-2.251,1.433-2.251c0.979,0,1.414,0.838,1.414,2.241C130.643,37.319,130.126,38.138,129.229,38.138 M129.229,38.992
		c1.515,0,2.601-1.265,2.601-3.101c0-1.94-1.051-3.111-2.618-3.111c-1.531,0-2.598,1.197-2.598,3.111
		C126.611,37.797,127.66,38.992,129.229,38.992 M119.936,38.894v-2.678h2.348v2.678h1.111v-5.994h-1.111v2.39h-2.348v-2.39h-1.113
		v5.994H119.936z M113.341,38.992c1.286,0,2.083-0.647,2.382-2.021l-1.015-0.199c-0.162,0.892-0.562,1.358-1.312,1.358
		c-0.844,0-1.359-0.726-1.359-2.192c0-1.509,0.516-2.247,1.367-2.247c0.707,0,1.051,0.402,1.232,1.294l1.059-0.188
		c-0.262-1.339-1.031-2.014-2.309-2.014c-1.521,0-2.555,1.144-2.555,3.185C110.834,37.851,111.838,38.992,113.341,38.992
		 M105.695,39c1.47,0,2.283-0.721,2.283-1.787c0-1.116-0.84-1.527-1.963-1.808c-0.979-0.243-1.551-0.37-1.551-1.025
		c0-0.44,0.471-0.728,1.042-0.728c0.662,0,1.134,0.307,1.323,0.897l0.969-0.298c-0.345-0.952-1.078-1.472-2.273-1.472
		c-1.313,0-2.172,0.693-2.172,1.655c0,1.277,1.039,1.571,2,1.816c0.779,0.197,1.531,0.367,1.531,1.051
		c0,0.502-0.479,0.835-1.195,0.835c-0.979,0-1.387-0.384-1.666-1.053l-0.924,0.354C103.488,38.408,104.249,39,105.695,39
		 M91.352,38.894l1.006-3.783l0.1-0.386l0.109,0.386l1.033,3.783h1.022l1.495-5.994h-0.926l-0.914,3.925l-0.109,0.434l-0.107-0.434
		l-1.104-3.925h-0.888l-1.014,3.916l-0.128,0.435l-0.108-0.453l-0.979-3.897h-1.095l1.558,5.994H91.352z M83.952,34.112l0.788,2.405
		h-1.53L83.952,34.112z M82.475,38.894l0.498-1.574h2.028l0.507,1.574h1.188l-2.01-5.994h-1.207l-1.965,5.994H82.475z
		 M79.016,38.894v-0.88h-2.654v-5.114h-1.113v5.994H79.016z M63.646,33.777h0.987c1.023,0,1.687,0.837,1.687,2.114
		c0,1.341-0.709,2.137-1.687,2.137h-0.987V33.777z M62.532,38.894h2.235c1.641,0,2.698-1.295,2.698-3.002
		c0-0.942-0.289-1.79-0.87-2.32c-0.47-0.447-1.133-0.674-1.91-0.674h-2.154L62.532,38.894L62.532,38.894z M55.639,33.768h1.387
		c0.634,0,0.988,0.308,0.988,0.829c0,0.559-0.373,0.874-1.078,0.874h-1.297V33.768z M55.639,38.894v-2.608h0.789
		c0.135,0,0.344,0,0.561-0.01l1.062,2.615h1.167l-1.175-2.803c0.742-0.224,1.121-0.772,1.121-1.509c0-0.98-0.731-1.679-1.991-1.679
		h-2.626v5.994L55.639,38.894L55.639,38.894z M48.881,34.112l0.789,2.405h-1.531L48.881,34.112z M47.406,38.894l0.498-1.574h2.029
		l0.506,1.574h1.186l-2.01-5.994h-1.204l-1.966,5.994H47.406z M42.688,38.894l1.982-5.994h-0.979l-1.258,3.98
		c-0.019,0.055-0.172,0.53-0.199,0.63c-0.019-0.099-0.19-0.594-0.199-0.63l-1.295-3.98h-1.178l2.012,5.994H42.688z M33.422,33.768
		h1.385c0.635,0,0.987,0.308,0.987,0.829c0,0.559-0.372,0.874-1.078,0.874h-1.295L33.422,33.768L33.422,33.768z M33.422,38.894
		v-2.608h0.788c0.136,0,0.345,0,0.56-0.01l1.062,2.615h1.167l-1.178-2.803c0.742-0.224,1.123-0.772,1.123-1.509
		c0-0.98-0.734-1.679-1.993-1.679h-2.626v5.994L33.422,38.894L33.422,38.894z M26.664,34.112l0.788,2.405h-1.531L26.664,34.112z
		 M25.188,38.894l0.5-1.574h2.027l0.508,1.574h1.186l-2.012-5.994h-1.205l-1.963,5.994H25.188z M17.842,38.894v-2.678h2.348v2.678
		h1.113v-5.994H20.19v2.39h-2.348v-2.39h-1.113v5.994H17.842z M10.098,38.958c0.262,0,0.543-0.019,0.779-0.055v-0.766
		c-0.171,0.021-0.354,0.037-0.561,0.029c-0.354-0.029-0.571-0.234-0.571-0.641v-2.337h0.97v-0.734h-0.97v-1.258h-0.95L8.73,34.455
		H7.98v0.734h0.742v2.391C8.723,38.5,9.229,38.958,10.098,38.958 M4.564,38.256c-0.48,0-0.752-0.199-0.752-0.633
		c0-0.491,0.479-0.78,1.287-0.915c0.217-0.035,0.443-0.054,0.697-0.062V37.5C5.616,37.868,5.208,38.256,4.564,38.256 M4.156,38.948
		c0.807,0,1.289-0.253,1.658-0.683c-0.01,0.242,0.027,0.502,0.084,0.629h1.004C6.818,38.669,6.8,38.299,6.8,38.028v-1.977
		c0-1.051-0.397-1.686-1.847-1.686c-1.186,0-1.918,0.444-2.1,1.293l0.959,0.097c0.108-0.475,0.442-0.653,1.076-0.653
		c0.6,0,0.836,0.225,0.891,0.648c0.018,0.078,0.018,0.206,0.018,0.311c-0.271,0.01-0.533,0.027-0.781,0.057
		c-1.402,0.159-2.281,0.632-2.281,1.61C2.734,38.508,3.342,38.948,4.156,38.948"/>
	<path fill="#FFFFFF" d="M258.984,13.236h-18.741c0-3.307,2.702-9.637,9.42-9.637C255.17,3.6,258.841,7.481,258.984,13.236
		 M260,14.145v-0.908c0-5.228-3.334-10.548-10.288-10.548c-5.942,0-10.581,4.747-10.581,11.456c0,6.954,4.492,11.938,11.062,11.938
		c3.815,0,6.763-1.534,8.936-4.316l-0.771-0.669c-1.979,2.584-4.732,4.027-8.162,4.027c-6.814,0-10-5.659-10-10.979H260L260,14.145z
		 M237.047,5.612c-1.785-1.821-4.49-2.924-7.292-2.924c-6.521,0-11.304,4.939-11.304,11.745c0,6.807,4.781,11.649,11.304,11.649
		c2.657,0,5.461-0.815,7.392-2.731l-0.725-0.675c-1.738,1.632-4.203,2.492-6.666,2.492c-6.279,0-10.242-4.936-10.242-10.735
		c0-5.801,3.963-10.833,10.242-10.833c2.415,0,4.78,1.008,6.473,2.733L237.047,5.612z M209.395,9.159h-0.094
		c0-1.63-0.099-4.555-0.195-5.802h-1.062c0.146,1.247,0.242,4.172,0.242,5.562V25.41h1.06V14.003c0-4.844,2.368-10.403,7.973-10.403
		c0.146,0,0.389,0,0.631,0.05V2.736c-0.292-0.048-0.581-0.048-0.872-0.048C213.79,2.688,210.648,4.604,209.395,9.159
		 M199.762,19.609h0.1c0,1.631,0.095,4.552,0.19,5.803h1.063c-0.146-1.251-0.24-4.172-0.24-5.562V3.357h-1.064v11.026
		c0,6.758-3.959,10.783-8.838,10.783c-5.604,0-6.957-4.937-6.957-8.58V3.357h-1.063v13.328c0,4.604,1.837,9.396,8.021,9.396
		C194.788,26.082,198.41,23.732,199.762,19.609 M176.544,14.337c0,5.945-4.056,10.832-10.581,10.832
		c-6.521,0-10.527-4.887-10.527-10.832c0-5.942,4.008-10.737,10.527-10.737C172.488,3.6,176.544,8.395,176.544,14.337
		 M177.605,14.337c0-6.856-4.783-11.648-11.646-11.648c-6.812,0-11.591,4.793-11.591,11.648c0,6.854,4.779,11.745,11.591,11.745
		C172.822,26.082,177.605,21.191,177.605,14.337 M150.708,19.659c0-3.932-3.235-5.178-6.761-6.091
		c-3.721-0.958-6.279-1.484-6.279-5.271c0-3.497,3.334-4.696,5.747-4.696c2.608,0,4.446,0.91,5.894,2.829l0.918-0.528
		c-1.496-2.109-3.814-3.211-6.812-3.211c-3.382,0-6.812,1.87-6.812,5.657c0,3.833,2.608,4.937,5.847,5.799
		c2.993,0.814,7.198,1.533,7.198,5.608c0,3.499-3.285,5.322-6.138,5.322c-3.043,0-5.36-1.153-6.956-3.358l-0.867,0.576
		c1.739,2.396,4.492,3.691,7.775,3.691C147.425,25.985,150.708,23.591,150.708,19.659 M120.359,9.375l2.139,6.4h-3.95L120.359,9.375
		z M115.832,25.412l1.34-4.713h6.992l1.593,4.713h7.827L125.18,1.43h-7.572l-7.937,23.982H115.832z M107.161,1.43h-7.429v23.982
		h7.429V1.43z M81.516,6.644h3.404c1.85,0,2.827,0.934,2.827,2.3c0,1.473-1.123,2.3-3.081,2.3h-3.15V6.644L81.516,6.644z
		 M81.516,25.412v-9.169l1.702-0.036l0.871,0.036l3.513,9.169h7.971l-4.348-10.463C94.16,13.651,95.5,11.857,95.5,8.62
		c0-4.423-3.297-7.19-8.805-7.19H74.088v23.982H81.516L81.516,25.412z M58.368,9.375l2.138,6.4h-3.949L58.368,9.375z M53.84,25.412
		l1.34-4.713h6.993l1.595,4.713h7.825L63.188,1.43h-7.571l-7.935,23.982H53.84z M32.087,25.412v-9.314h5.653v9.314h7.391V1.43H37.74
		v8.844h-5.653V1.43h-7.426v23.982H32.087z M10.941,25.698c6.992,0,10.07-3.2,10.07-7.479c0-5.464-4.093-6.758-7.68-7.513
		c-2.79-0.611-5.254-0.897-5.254-2.59c0-1.007,0.871-1.545,2.572-1.545c1.812,0,3.043,0.573,3.732,2.192l6.122-1.869
		C19.127,3.371,16.157,1,10.758,1C4.346,1,0.723,4.057,0.723,8.336c0,5.463,4.349,6.72,8.043,7.585
		c2.717,0.612,5.071,0.972,5.071,2.659c0,1.188-1.157,1.728-3.114,1.728c-2.717,0-4.166-1.185-5.037-3.237L0,19.227
		C1.268,22.572,3.913,25.698,10.941,25.698"/>
</g>
</svg>
