<?xml version="1.0" encoding="utf-8"?>
<!-- Generator: Adobe Illustrator 16.0.4, SVG Export Plug-In . SVG Version: 6.00 Build 0)  -->
<!DOCTYPE svg PUBLIC "-//W3C//DTD SVG 1.1//EN" "http://www.w3.org/Graphics/SVG/1.1/DTD/svg11.dtd">
<svg version="1.1" id="Layer_1" xmlns="http://www.w3.org/2000/svg" xmlns:xlink="http://www.w3.org/1999/xlink" x="0px" y="0px"
	 width="48px" height="32px" viewBox="0 0 48 32" enable-background="new 0 0 48 32" xml:space="preserve">
<g>
	<path fill="#222222" d="M41.965,14.226c2.609-0.216,4.375-1.401,5.059-3.01c-0.941,0.578-3.863,1.208-5.477,0.608
		c-0.078-0.381-0.168-0.74-0.254-1.064c-1.23-4.514-5.438-8.152-9.848-7.712c0.355-0.144,0.719-0.278,1.078-0.4
		c0.484-0.172,3.332-0.636,2.887-1.642c-0.379-0.884-3.859,0.668-4.516,0.872C31.762,1.552,33.191,0.995,33.344,0
		c-1.324,0.18-2.625,0.808-3.629,1.718c0.363-0.39,0.637-0.866,0.695-1.378c-3.535,2.256-5.599,6.808-7.272,11.224
		c-1.312-1.27-2.474-2.271-3.518-2.828c-2.926-1.569-6.424-3.205-11.918-5.245c-0.168,1.817,0.899,4.233,3.974,5.84
		C11.01,9.243,9.792,9.44,8.818,9.674c0.396,2.082,1.692,3.798,5.203,4.626c-1.604,0.106-2.433,0.472-3.185,1.258
		c0.73,1.448,2.512,3.153,5.718,2.803c-3.563,1.535-1.452,4.381,1.448,3.955c-4.948,5.113-12.75,4.736-17.228,0.463
		c11.696,15.938,37.12,9.426,40.909-5.926c2.836,0.023,4.508-0.984,5.543-2.095C45.59,15.037,43.223,14.75,41.965,14.226"/>
</g>
</svg>
