<?xml version="1.0" encoding="utf-8"?>
<!-- Generator: Adobe Illustrator 16.0.4, SVG Export Plug-In . SVG Version: 6.00 Build 0)  -->
<!DOCTYPE svg PUBLIC "-//W3C//DTD SVG 1.1//EN" "http://www.w3.org/Graphics/SVG/1.1/DTD/svg11.dtd">
<svg version="1.1" id="Layer_1" xmlns="http://www.w3.org/2000/svg" xmlns:xlink="http://www.w3.org/1999/xlink" x="0px" y="0px"
	 width="430px" height="59px" viewBox="1 0.5 430 59" enable-background="new 1 0.5 430 59" xml:space="preserve">
<g>
	<path fill="#B0B3A2" d="M313.927,59.357V58.18h-3.516v-6.842h-1.474v8.02H313.927z M301.148,58.348
		c-1.104,0-1.896-0.963-1.896-2.994c0-1.865,0.611-3.006,1.896-3.006c1.295,0,1.873,1.117,1.873,2.994
		C303.021,57.254,302.337,58.348,301.148,58.348 M301.148,59.488c2.004,0,3.441-1.692,3.441-4.146c0-2.6-1.39-4.159-3.467-4.159
		c-2.029,0-3.443,1.598-3.443,4.159C297.682,57.89,299.072,59.488,301.148,59.488 M290.35,58.348c-1.104,0-1.896-0.963-1.896-2.994
		c0-1.865,0.611-3.006,1.896-3.006c1.297,0,1.873,1.117,1.873,2.994C292.223,57.254,291.538,58.348,290.35,58.348 M290.35,59.488
		c2.004,0,3.442-1.692,3.442-4.146c0-2.6-1.392-4.159-3.467-4.159c-2.03,0-3.444,1.598-3.444,4.159
		C286.882,57.89,288.271,59.488,290.35,59.488 M278.036,59.357v-3.583h3.108v3.583h1.476v-8.02h-1.476v3.199h-3.108v-3.199h-1.476
		v8.02H278.036z M269.299,59.488c1.704,0,2.762-0.865,3.156-2.704l-1.346-0.265c-0.217,1.19-0.741,1.816-1.738,1.816
		c-1.116,0-1.801-0.975-1.801-2.934c0-2.023,0.685-3.008,1.812-3.008c0.938,0,1.393,0.542,1.633,1.731l1.403-0.252
		c-0.347-1.793-1.367-2.691-3.062-2.691c-2.015,0-3.383,1.523-3.383,4.253C265.979,57.962,267.309,59.488,269.299,59.488
		 M259.173,59.5c1.945,0,3.022-0.961,3.022-2.392c0-1.491-1.113-2.043-2.604-2.417c-1.296-0.324-2.053-0.493-2.053-1.371
		c0-0.59,0.625-0.975,1.381-0.975c0.877,0,1.501,0.406,1.753,1.201l1.283-0.397c-0.456-1.272-1.428-1.969-3.014-1.969
		c-1.738,0-2.879,0.924-2.879,2.21c0,1.707,1.379,2.105,2.65,2.431c1.033,0.265,2.03,0.493,2.03,1.406
		c0,0.674-0.638,1.117-1.585,1.117c-1.297,0-1.836-0.518-2.208-1.407l-1.226,0.471C256.246,58.708,257.253,59.5,259.173,59.5
		 M240.165,59.357l1.332-5.062l0.132-0.517l0.145,0.517l1.367,5.062h1.356l1.979-8.02h-1.225l-1.212,5.252l-0.146,0.577
		l-0.145-0.577l-1.464-5.252h-1.177l-1.346,5.242l-0.168,0.575l-0.144-0.603l-1.296-5.217h-1.452l2.062,8.02L240.165,59.357
		L240.165,59.357z M230.361,52.962l1.046,3.223h-2.029L230.361,52.962z M228.406,59.357l0.658-2.105h2.688l0.672,2.105h1.572
		l-2.664-8.02h-1.595l-2.605,8.02H228.406z M223.82,59.357V58.18h-3.516v-6.842h-1.475v8.02H223.82z M203.457,52.516h1.309
		c1.356,0,2.233,1.117,2.233,2.826c0,1.79-0.938,2.863-2.233,2.863h-1.309V52.516z M201.983,59.357h2.963
		c2.173,0,3.575-1.732,3.575-4.016c0-1.265-0.385-2.394-1.151-3.104c-0.623-0.599-1.5-0.899-2.532-0.899h-2.854L201.983,59.357
		L201.983,59.357z M192.85,52.502h1.838c0.841,0,1.309,0.409,1.309,1.107c0,0.746-0.491,1.167-1.429,1.167h-1.718V52.502
		L192.85,52.502z M192.85,59.357V55.87h1.045c0.181,0,0.456,0,0.744-0.012l1.405,3.499h1.546l-1.558-3.752
		c0.981-0.299,1.484-1.033,1.484-2.02c0-1.312-0.971-2.248-2.639-2.248H191.4v8.02H192.85L192.85,59.357z M183.898,52.962
		l1.044,3.223h-2.028L183.898,52.962z M181.942,59.357l0.658-2.105h2.688l0.672,2.105h1.572l-2.664-8.02h-1.596l-2.604,8.02H181.942
		z M175.69,59.357l2.628-8.02h-1.296l-1.669,5.324c-0.023,0.073-0.229,0.711-0.265,0.842c-0.022-0.131-0.252-0.792-0.264-0.842
		l-1.716-5.324h-1.562l2.664,8.02H175.69z M163.414,52.502h1.837c0.841,0,1.309,0.409,1.309,1.107c0,0.746-0.49,1.167-1.429,1.167
		h-1.717V52.502L163.414,52.502z M163.414,59.357V55.87h1.045c0.18,0,0.456,0,0.744-0.012l1.405,3.499h1.546l-1.559-3.752
		c0.982-0.299,1.485-1.033,1.485-2.02c0-1.312-0.971-2.248-2.639-2.248h-3.479v8.02H163.414L163.414,59.357z M154.463,52.962
		l1.044,3.223h-2.028L154.463,52.962z M152.507,59.357l0.66-2.105h2.688l0.672,2.105h1.571l-2.664-8.02h-1.596l-2.604,8.02H152.507z
		 M142.774,59.357v-3.583h3.108v3.583h1.477v-8.02h-1.477v3.199h-3.108v-3.199H141.3v8.02H142.774z M132.516,59.441
		c0.349,0,0.721-0.025,1.032-0.074v-1.02c-0.229,0.023-0.469,0.049-0.744,0.035c-0.469-0.035-0.756-0.313-0.756-0.854v-3.127h1.283
		v-0.984h-1.283v-1.684h-1.26l-0.084,1.684h-0.996v0.984h0.984V57.6C130.692,58.829,131.364,59.441,132.516,59.441 M125.184,58.504
		c-0.636,0-0.996-0.264-0.996-0.842c0-0.661,0.637-1.047,1.705-1.229c0.288-0.049,0.589-0.07,0.925-0.084v1.145
		C126.576,57.987,126.036,58.504,125.184,58.504 M124.644,59.428c1.069,0,1.705-0.335,2.197-0.912
		c-0.012,0.323,0.036,0.674,0.108,0.842h1.331c-0.108-0.302-0.133-0.795-0.133-1.154v-2.646c0-1.407-0.528-2.258-2.447-2.258
		c-1.573,0-2.544,0.601-2.784,1.729l1.271,0.131c0.144-0.636,0.589-0.876,1.429-0.876c0.792,0,1.104,0.301,1.177,0.864
		c0.023,0.11,0.023,0.278,0.023,0.423c-0.36,0.01-0.707,0.035-1.031,0.072c-1.861,0.216-3.024,0.842-3.024,2.151
		C122.761,58.841,123.562,59.428,124.644,59.428"/>
	<path fill="#FFFFFF" d="M429.279,20.452h-31.817c0-5.669,4.593-16.514,15.99-16.514C422.801,3.938,429.033,10.591,429.279,20.452
		 M431,22.011v-1.56c0-8.956-5.657-18.077-17.465-18.077c-10.086,0-17.958,8.134-17.958,19.637c0,11.915,7.626,20.461,18.778,20.461
		c6.478,0,11.479-2.63,15.17-7.396l-1.312-1.15c-3.361,4.437-8.036,6.9-13.856,6.9c-11.562,0-16.976-9.695-16.976-18.814L431,22.011
		L431,22.011z M392.781,7.389c-3.034-3.124-7.626-5.012-12.383-5.012c-11.07,0-19.188,8.462-19.188,20.128
		c0,11.669,8.117,19.968,19.188,19.968c4.511,0,9.266-1.398,12.547-4.686l-1.231-1.149c-2.951,2.794-7.134,4.274-11.313,4.274
		c-10.658,0-17.385-8.464-17.385-18.406c0-9.941,6.725-18.567,17.385-18.567c4.1,0,8.116,1.725,10.986,4.684L392.781,7.389z
		 M346.617,13.467h-0.164c0-2.793-0.164-7.805-0.328-9.941h-1.804c0.246,2.136,0.409,7.148,0.409,9.531V41.32h1.805V21.766
		c0-8.299,4.018-17.828,13.53-17.828c0.244,0,0.653,0,1.063,0.081V2.459c-0.492-0.082-0.981-0.082-1.476-0.082
		C354.079,2.377,348.749,5.662,346.617,13.467 M331.029,31.378h0.163c0,2.795,0.164,7.807,0.326,9.943h1.807
		c-0.247-2.137-0.411-7.148-0.411-9.53V3.526h-1.802v18.896c0,11.585-6.727,18.488-15.01,18.488
		c-9.511,0-11.808-8.464-11.808-14.709V3.526h-1.803v22.84c0,7.888,3.115,16.105,13.61,16.105
		C322.584,42.472,328.733,38.444,331.029,31.378 M292.335,22.34c0,10.188-6.888,18.57-17.958,18.57s-17.876-8.382-17.876-18.57
		s6.806-18.402,17.876-18.402S292.335,12.152,292.335,22.34 M294.139,22.34c0-11.75-8.115-19.964-19.762-19.964
		c-11.562,0-19.68,8.214-19.68,19.964c0,11.75,8.117,20.132,19.68,20.132C286.021,42.472,294.139,34.09,294.139,22.34
		 M249.188,31.46c0-6.737-5.492-8.873-11.479-10.434c-6.312-1.643-10.66-2.547-10.66-9.039c0-5.997,5.658-8.049,9.76-8.049
		c4.428,0,7.543,1.56,10.002,4.847l1.561-0.904c-2.541-3.615-6.479-5.504-11.562-5.504c-5.738,0-11.562,3.203-11.562,9.695
		c0,6.573,4.427,8.462,9.922,9.941c5.084,1.396,12.218,2.628,12.218,9.613c0,5.998-5.576,9.121-10.414,9.121
		c-5.166,0-9.102-1.972-11.808-5.752l-1.478,0.986c2.951,4.11,7.627,6.326,13.201,6.326
		C243.611,42.308,249.188,38.198,249.188,31.46 M198.683,14.508l3.54,10.701h-6.54L198.683,14.508z M191.183,41.321l2.221-7.877
		h11.58l2.64,7.877h12.96l-13.919-40.1h-12.54l-13.141,40.1H191.183z M177.154,1.221h-12.301v40.1h12.301V1.221z M135.023,9.939
		h5.64c3.06,0,4.68,1.564,4.68,3.848c0,2.466-1.859,3.849-5.1,3.849h-5.22V9.939L135.023,9.939z M135.023,41.321V25.99l2.819-0.062
		l1.44,0.062l5.818,15.331h13.2l-7.2-17.496c4.859-2.162,7.08-5.168,7.08-10.58c0-7.396-5.46-12.024-14.58-12.024h-20.88v40.1
		H135.023z M97.016,14.508l3.54,10.701h-6.54L97.016,14.508z M89.516,41.321l2.221-7.877h11.579l2.641,7.877h12.959l-13.919-40.1
		h-12.54l-13.142,40.1H89.516z M53.814,41.321V25.75h9.36v15.572h12.239v-40.1H63.175V16.01h-9.36V1.221H41.516v40.1H53.814z
		 M19.119,41.803c11.58,0,16.68-5.353,16.68-12.506c0-9.138-6.779-11.302-12.72-12.565c-4.62-1.022-8.699-1.503-8.699-4.329
		c0-1.683,1.44-2.585,4.261-2.585c3,0,5.039,0.962,6.18,3.667l10.14-3.125c-2.278-5.893-7.199-9.86-16.14-9.86
		C8.202,0.5,2.202,5.61,2.202,12.764c0,9.137,7.199,11.243,13.32,12.684c4.498,1.022,8.398,1.624,8.398,4.45
		c0,1.983-1.92,2.885-5.16,2.885c-4.498,0-6.898-1.984-8.34-5.412L1,30.979C3.1,36.571,7.479,41.803,19.119,41.803"/>
</g>
</svg>
