<?xml version="1.0" encoding="utf-8"?>
<!-- Generator: Adobe Illustrator 16.0.4, SVG Export Plug-In . SVG Version: 6.00 Build 0)  -->
<!DOCTYPE svg PUBLIC "-//W3C//DTD SVG 1.1//EN" "http://www.w3.org/Graphics/SVG/1.1/DTD/svg11.dtd">
<svg version="1.1" id="Layer_1" xmlns="http://www.w3.org/2000/svg" xmlns:xlink="http://www.w3.org/1999/xlink" x="0px" y="0px"
	 width="34px" height="32px" viewBox="0 0 34 32" enable-background="new 0 0 34 32" xml:space="preserve">
<g>
	<path fill="#FDAF00" d="M0.683,32H7.86V10.408H0.683V32z M4.318,0C1.862,0,0.256,1.612,0.256,3.73c0,2.073,1.561,3.733,3.969,3.733
		h0.048c2.502,0,4.06-1.66,4.06-3.733C8.286,1.612,6.774,0,4.318,0 M33.744,19.619V32h-7.178V20.449
		c0-2.902-1.039-4.883-3.635-4.883c-1.984,0-3.164,1.334-3.686,2.625c-0.188,0.461-0.238,1.104-0.238,1.75V32H11.83
		c0,0,0.096-19.563,0-21.59h7.178v3.06c-0.014,0.022-0.031,0.049-0.045,0.07h0.045v-0.07c0.955-1.47,2.658-3.567,6.471-3.567
		C30.203,9.902,33.744,12.988,33.744,19.619"/>
</g>
</svg>
