<?xml version="1.0" encoding="utf-8"?>
<!-- Generator: Adobe Illustrator 16.0.4, SVG Export Plug-In . SVG Version: 6.00 Build 0)  -->
<!DOCTYPE svg PUBLIC "-//W3C//DTD SVG 1.1//EN" "http://www.w3.org/Graphics/SVG/1.1/DTD/svg11.dtd">
<svg version="1.1" id="Layer_1" xmlns="http://www.w3.org/2000/svg" xmlns:xlink="http://www.w3.org/1999/xlink" x="0px" y="0px"
	 width="82px" height="82px" viewBox="0 0 82 82" enable-background="new 0 0 82 82" xml:space="preserve">
<g>
	<path fill="#FFFFFF" d="M41,81.998c22.645,0,41-18.355,41-40.999C82,18.357,63.645,0.001,41,0.001c-22.644,0-41,18.356-41,40.998
		C0,63.643,18.356,81.998,41,81.998"/>
	<path fill="#B2AEA6" d="M33.389,20.593c-6.92,0-12.546,5.635-12.548,12.55c0,6.92,5.632,12.546,12.55,12.548
		c6.918,0,12.546-5.626,12.546-12.548C45.938,26.226,40.309,20.593,33.389,20.593 M33.389,50.708
		c-9.684,0.002-17.566-7.881-17.566-17.564c0-9.687,7.883-17.568,17.568-17.566c9.684-0.002,17.566,7.881,17.566,17.566
		C50.957,42.827,43.074,50.71,33.389,50.708"/>
	<path fill="#B2AEA6" d="M62.68,60.479c-0.029-0.502-0.32-1.17-0.637-1.49L50.684,47.632c-0.32-0.321-0.996-0.61-1.496-0.635
		l-3.209-0.187c-0.506-0.028-0.893,0.363-0.854,0.857l0.207,3.188c0.031,0.5,0.318,1.172,0.639,1.492l11.353,11.352
		c0.319,0.324,0.993,0.609,1.489,0.641l3.224,0.184c0.506,0.027,0.891-0.366,0.854-0.86L62.68,60.479z"/>
	<path fill="#B2AEA6" d="M41.504,32.909l-1.136-0.771c-0.181-0.119-0.5-0.221-0.719-0.221h-5.04l0.002-5.035
		c0-0.223-0.1-0.541-0.222-0.719l-0.786-1.139c-0.126-0.18-0.321-0.174-0.445,0l-0.771,1.139c-0.118,0.178-0.22,0.496-0.22,0.713
		v5.041h-5.042c-0.216,0-0.54,0.1-0.714,0.225l-1.141,0.783c-0.178,0.123-0.178,0.326,0,0.445l1.137,0.771
		c0.178,0.121,0.502,0.219,0.718,0.219h5.042v5.043c0,0.219,0.098,0.539,0.222,0.713l0.784,1.139c0.124,0.178,0.326,0.178,0.444,0
		l0.771-1.135c0.124-0.176,0.222-0.504,0.222-0.715V34.36h5.038c0.219,0.004,0.538-0.098,0.717-0.217l1.14-0.791
		C41.684,33.231,41.68,33.032,41.504,32.909"/>
	<path fill="#B2AEA6" d="M41.001,2c-21.504,0-39,17.496-39,38.999s17.496,38.999,39,39.001C62.504,79.998,80,62.502,80,41.001
		C80,19.496,62.504,2,41.001,2 M41.001,82c-22.608,0-41-18.395-41-41.001c0-22.605,18.392-40.997,41-40.999
		C63.609,0,82,18.394,82,41.001C82,63.605,63.605,81.998,41.001,82"/>
</g>
</svg>
