<?xml version="1.0" encoding="utf-8"?>
<!-- Generator: Adobe Illustrator 16.0.4, SVG Export Plug-In . SVG Version: 6.00 Build 0)  -->
<!DOCTYPE svg PUBLIC "-//W3C//DTD SVG 1.1//EN" "http://www.w3.org/Graphics/SVG/1.1/DTD/svg11.dtd">
<svg version="1.1" id="Layer_1" xmlns="http://www.w3.org/2000/svg" xmlns:xlink="http://www.w3.org/1999/xlink" x="0px" y="0px"
	 width="82px" height="82px" viewBox="0 0 82 82" enable-background="new 0 0 82 82" xml:space="preserve">
<g>
	<path fill="#FFFFFF" d="M40.999,81.999c22.646,0,40.999-18.354,40.999-40.999c0-22.644-18.354-40.999-40.999-40.999
		C18.356,0.001,0,18.356,0,41C0,63.645,18.356,81.999,40.999,81.999"/>
	<path fill="#B2AEA6" d="M40.998,2.001C19.495,2.001,1.999,19.497,1.999,41C2.001,62.503,19.495,79.999,41,79.999
		c21.503,0,38.999-17.496,38.999-38.999S62.503,2.001,40.998,2.001 M41,81.999C18.391,81.999-0.001,63.604-0.001,41
		C0.001,18.391,18.391,0.001,40.998,0.001C63.605,0.001,82,18.391,82,41C82,63.604,63.605,81.999,41,81.999"/>
	<path fill="#B2AEA6" d="M18.795,18.721c0.236-0.232,0.556-0.348,0.964-0.35c5.704,1.463,11.115,2.195,16.229,2.195
		c0.144,0.203,0.271,0.523,0.374,0.961c0.1,0.443,0.092,0.791-0.026,1.055c-0.64,0.145-2.687,0.348-6.123,0.604
		c-3.448,0.256-5.64,0.377-6.594,0.361c0.031,1.754-0.11,4.264-0.427,7.535c-0.313,3.264-0.491,4.99-0.54,5.184
		c-0.26,0.117-0.611,0.127-1.048,0.02c-0.439-0.104-0.76-0.227-0.964-0.371c0-5.117-0.731-10.525-2.196-16.228
		C18.447,19.274,18.562,18.958,18.795,18.721"/>
	<path fill="#B2AEA6" d="M37.217,35.375c-0.048-0.266-0.248-0.637-0.438-0.826l-8.525-8.527c-0.19-0.189-0.562-0.387-0.826-0.432
		l-1.7-0.314c-0.268-0.049-0.443,0.131-0.39,0.393l0.324,1.689c0.048,0.264,0.246,0.637,0.434,0.826l8.523,8.523
		c0.189,0.189,0.562,0.387,0.828,0.436l1.701,0.314c0.269,0.049,0.444-0.131,0.391-0.396L37.217,35.375z"/>
	<path fill="#B2AEA6" d="M18.793,63.273c-0.234-0.231-0.35-0.557-0.35-0.965c1.462-5.697,2.193-11.111,2.195-16.228
		c0.202-0.146,0.522-0.271,0.962-0.373c0.44-0.101,0.788-0.092,1.053,0.024c0.147,0.64,0.348,2.685,0.604,6.123
		c0.256,3.447,0.376,5.642,0.362,6.595c1.752-0.027,4.262,0.108,7.533,0.428c3.266,0.312,4.996,0.492,5.184,0.535
		c0.118,0.264,0.126,0.614,0.022,1.051c-0.103,0.445-0.227,0.763-0.374,0.97c-5.114,0-10.525,0.73-16.226,2.191
		C19.349,63.626,19.027,63.511,18.793,63.273"/>
	<path fill="#B2AEA6" d="M35.445,44.854c-0.264,0.054-0.636,0.246-0.828,0.437l-8.525,8.526c-0.188,0.189-0.386,0.562-0.432,0.828
		l-0.312,1.699c-0.051,0.268,0.13,0.443,0.39,0.391l1.689-0.319c0.265-0.049,0.637-0.25,0.826-0.44l8.523-8.521
		c0.194-0.189,0.386-0.564,0.434-0.828l0.316-1.703c0.048-0.268-0.132-0.439-0.396-0.391L35.445,44.854z"/>
	<path fill="#B2AEA6" d="M63.206,63.277c-0.233,0.232-0.554,0.349-0.961,0.349c-5.703-1.461-11.117-2.192-16.233-2.192
		c-0.145-0.203-0.267-0.522-0.373-0.965c-0.1-0.439-0.092-0.789,0.024-1.053c0.64-0.146,2.687-0.346,6.125-0.604
		c3.446-0.254,5.639-0.375,6.594-0.361c-0.028-1.752,0.109-4.262,0.427-7.529c0.312-3.27,0.491-4.998,0.539-5.186
		c0.266-0.119,0.612-0.127,1.053-0.025c0.438,0.104,0.76,0.227,0.963,0.373c0,5.115,0.732,10.527,2.195,16.229
		C63.559,62.723,63.439,63.046,63.206,63.277"/>
	<path fill="#B2AEA6" d="M44.783,46.623c0.052,0.264,0.246,0.639,0.439,0.832l8.521,8.521c0.191,0.19,0.564,0.389,0.83,0.438
		l1.701,0.312c0.266,0.047,0.438-0.129,0.391-0.396l-0.324-1.688c-0.051-0.265-0.246-0.638-0.436-0.826l-8.528-8.523
		c-0.188-0.193-0.558-0.387-0.826-0.438l-1.702-0.308c-0.27-0.051-0.44,0.125-0.394,0.39L44.783,46.623z"/>
	<path fill="#B2AEA6" d="M63.208,18.729c0.231,0.232,0.349,0.549,0.349,0.959c-1.459,5.705-2.191,11.115-2.191,16.23
		c-0.205,0.145-0.525,0.271-0.963,0.373c-0.443,0.102-0.791,0.092-1.055-0.025c-0.146-0.641-0.345-2.686-0.603-6.128
		c-0.259-3.441-0.377-5.635-0.363-6.59c-1.754,0.033-4.262-0.109-7.53-0.426c-3.268-0.312-4.994-0.492-5.188-0.539
		c-0.118-0.26-0.126-0.611-0.021-1.049c0.104-0.439,0.229-0.762,0.371-0.967c5.12,0,10.524-0.729,16.231-2.193
		C62.654,18.377,62.977,18.493,63.208,18.729"/>
	<path fill="#B2AEA6" d="M46.553,37.15c0.268-0.053,0.639-0.25,0.832-0.443l8.521-8.523c0.191-0.189,0.391-0.562,0.439-0.824
		l0.311-1.707c0.047-0.264-0.129-0.439-0.393-0.391l-1.689,0.328c-0.266,0.049-0.639,0.246-0.826,0.438l-8.523,8.521
		c-0.19,0.189-0.389,0.561-0.438,0.826l-0.311,1.705c-0.05,0.264,0.127,0.439,0.391,0.391L46.553,37.15z"/>
</g>
</svg>
