<?xml version="1.0" encoding="utf-8"?>
<!-- Generator: Adobe Illustrator 16.0.4, SVG Export Plug-In . SVG Version: 6.00 Build 0)  -->
<!DOCTYPE svg PUBLIC "-//W3C//DTD SVG 1.1//EN" "http://www.w3.org/Graphics/SVG/1.1/DTD/svg11.dtd">
<svg version="1.1" id="Layer_1" xmlns="http://www.w3.org/2000/svg" xmlns:xlink="http://www.w3.org/1999/xlink" x="0px" y="0px"
	 width="82px" height="82px" viewBox="0 0 82 82" enable-background="new 0 0 82 82" xml:space="preserve">
<circle fill="#FFFFFF" cx="40.999" cy="41" r="40"/>
<g>
	<g>
		<path fill="#B2AEA6" d="M41,81.999C18.39,81.999,0,63.605,0,41C0.001,18.392,18.39,0.001,40.999,0.001
			C63.605,0.001,82,18.392,82,41C82,63.605,63.605,81.999,41,81.999z M40.999,2.001C19.496,2.001,2,19.497,2,41
			c0,21.504,17.496,39,39,39s39-17.496,39-39C80,19.497,62.504,2.001,40.999,2.001z"/>
	</g>
	<g>
		<path fill="#B2AEA6" d="M37.199,37.115c-0.236,0.232-0.556,0.348-0.965,0.35c-5.703-1.463-11.114-2.195-16.229-2.195
			c-0.144-0.203-0.271-0.523-0.373-0.961c-0.102-0.443-0.092-0.791,0.025-1.055c0.641-0.145,2.686-0.346,6.124-0.604
			c3.447-0.256,5.641-0.377,6.595-0.361c-0.032-1.754,0.109-4.264,0.425-7.535c0.313-3.262,0.493-4.989,0.54-5.183
			c0.26-0.117,0.612-0.127,1.048-0.02c0.44,0.104,0.761,0.227,0.965,0.371c0,5.116,0.732,10.524,2.196,16.228
			C37.546,36.562,37.43,36.879,37.199,37.115z"/>
		<path fill="#B2AEA6" d="M18.776,20.461c0.049,0.266,0.247,0.637,0.438,0.826l8.525,8.527c0.19,0.189,0.562,0.387,0.826,0.432
			l1.701,0.314c0.268,0.049,0.444-0.131,0.391-0.391l-0.324-1.691c-0.049-0.264-0.246-0.637-0.436-0.826l-8.522-8.522
			c-0.191-0.189-0.563-0.387-0.828-0.436l-1.703-0.314c-0.267-0.049-0.443,0.131-0.39,0.396L18.776,20.461z"/>
	</g>
	<g>
		<path fill="#B2AEA6" d="M37.186,44.873c0.233,0.232,0.35,0.557,0.35,0.965c-1.462,5.699-2.194,11.113-2.196,16.229
			c-0.201,0.146-0.522,0.271-0.962,0.373c-0.44,0.101-0.788,0.093-1.052-0.022c-0.148-0.642-0.347-2.687-0.604-6.125
			c-0.257-3.446-0.376-5.642-0.361-6.594c-1.753,0.026-4.264-0.109-7.534-0.429c-3.268-0.312-4.996-0.492-5.186-0.535
			c-0.116-0.264-0.126-0.614-0.021-1.051c0.102-0.444,0.226-0.762,0.373-0.969c5.115,0,10.525-0.732,16.226-2.193
			C36.63,44.521,36.952,44.637,37.186,44.873z"/>
		<path fill="#B2AEA6" d="M20.533,63.295c0.264-0.053,0.637-0.246,0.827-0.436l8.526-8.527c0.188-0.189,0.386-0.562,0.433-0.826
			l0.312-1.701c0.05-0.268-0.13-0.443-0.391-0.391l-1.69,0.32c-0.264,0.049-0.636,0.25-0.826,0.44l-8.522,8.521
			c-0.194,0.189-0.388,0.564-0.436,0.828l-0.315,1.703c-0.049,0.269,0.132,0.439,0.396,0.392L20.533,63.295z"/>
	</g>
	<g>
		<path fill="#B2AEA6" d="M44.801,44.889c0.232-0.231,0.553-0.348,0.961-0.348c5.703,1.461,11.113,2.193,16.232,2.193
			c0.145,0.203,0.268,0.522,0.373,0.965c0.1,0.439,0.092,0.789-0.023,1.053c-0.641,0.146-2.686,0.344-6.125,0.604
			c-3.447,0.254-5.641,0.375-6.594,0.361c0.027,1.752-0.109,4.262-0.426,7.529c-0.314,3.27-0.494,4.998-0.539,5.186
			c-0.264,0.119-0.613,0.127-1.053,0.025c-0.439-0.104-0.76-0.227-0.963-0.373c-0.002-5.115-0.734-10.527-2.195-16.23
			C44.449,45.445,44.564,45.121,44.801,44.889z"/>
		<path fill="#B2AEA6" d="M63.223,61.545c-0.051-0.264-0.246-0.639-0.438-0.832l-8.522-8.521c-0.189-0.19-0.562-0.389-0.83-0.438
			l-1.699-0.312c-0.269-0.047-0.439,0.129-0.394,0.396l0.324,1.688c0.051,0.265,0.246,0.638,0.438,0.826l8.526,8.523
			c0.188,0.193,0.56,0.387,0.826,0.438l1.703,0.308c0.268,0.051,0.44-0.125,0.393-0.39L63.223,61.545z"/>
	</g>
	<g>
		<path fill="#B2AEA6" d="M44.816,37.123c-0.232-0.232-0.35-0.549-0.35-0.957c1.461-5.707,2.193-11.117,2.193-16.231
			c0.203-0.145,0.523-0.271,0.961-0.373c0.443-0.102,0.792-0.092,1.056,0.025c0.146,0.641,0.345,2.685,0.603,6.128
			c0.258,3.441,0.377,5.635,0.363,6.59c1.752-0.033,4.264,0.109,7.528,0.426c3.271,0.312,4.996,0.492,5.188,0.539
			c0.119,0.26,0.125,0.611,0.022,1.049c-0.104,0.439-0.229,0.764-0.373,0.967c-5.118,0-10.524,0.729-16.229,2.193
			C45.369,37.475,45.049,37.359,44.816,37.123z"/>
		<path fill="#B2AEA6" d="M61.473,18.702c-0.27,0.053-0.639,0.25-0.832,0.443l-8.522,8.522c-0.191,0.189-0.388,0.562-0.438,0.826
			l-0.312,1.705c-0.048,0.264,0.131,0.439,0.396,0.391l1.688-0.328c0.264-0.049,0.639-0.246,0.825-0.436l8.523-8.523
			c0.191-0.189,0.389-0.561,0.438-0.826l0.31-1.704c0.052-0.264-0.125-0.439-0.391-0.391L61.473,18.702z"/>
	</g>
</g>
</svg>
