<?xml version="1.0" encoding="utf-8"?>
<!-- Generator: Adobe Illustrator 16.0.4, SVG Export Plug-In . SVG Version: 6.00 Build 0)  -->
<!DOCTYPE svg PUBLIC "-//W3C//DTD SVG 1.1//EN" "http://www.w3.org/Graphics/SVG/1.1/DTD/svg11.dtd">
<svg version="1.1" id="Layer_1" xmlns="http://www.w3.org/2000/svg" xmlns:xlink="http://www.w3.org/1999/xlink" x="0px" y="0px"
	 width="82px" height="82px" viewBox="0 0 82 82" enable-background="new 0 0 82 82" xml:space="preserve">
<g>
	<path fill="#FFFFFF" d="M40.999,81.998c22.645,0,40.999-18.355,40.999-40.999C81.998,18.354,63.644,0,40.999,0
		C18.356,0,0,18.354,0,40.999C0,63.643,18.356,81.998,40.999,81.998"/>
	<path fill="#AFB2A1" d="M40.998,2C19.495,2,1.999,19.495,1.999,40.999C2.001,62.502,19.495,79.998,41,80
		c21.503-0.002,38.999-17.498,38.999-38.999C79.999,19.495,62.503,2,40.998,2 M41,82C18.393,82-0.001,63.605-0.001,40.999
		C0.001,18.394,18.393,0.002,40.998,0C63.608,0,82,18.394,82,41.001C82,63.605,63.606,81.998,41,82"/>
	<path fill="#AFB2A1" d="M33.389,20.593c-6.919,0-12.547,5.635-12.547,12.551c0,6.92,5.63,12.548,12.549,12.548
		c6.918,0,12.548-5.626,12.546-12.548C45.938,26.228,40.309,20.593,33.389,20.593 M33.389,50.707
		c-9.683,0.002-17.565-7.881-17.567-17.563c0.002-9.688,7.882-17.568,17.569-17.566c9.684-0.002,17.565,7.881,17.565,17.566
		C50.956,42.828,43.074,50.709,33.389,50.707"/>
	<path fill="#AFB2A1" d="M62.679,60.477c-0.027-0.502-0.318-1.17-0.637-1.49L50.685,47.631c-0.322-0.32-0.996-0.611-1.496-0.635
		l-3.21-0.186c-0.508-0.029-0.892,0.365-0.854,0.855l0.208,3.189c0.029,0.5,0.319,1.174,0.638,1.49l11.353,11.354
		c0.32,0.322,0.992,0.609,1.488,0.641l3.223,0.182c0.508,0.029,0.891-0.365,0.852-0.859L62.679,60.477z"/>
	<path fill="#AFB2A1" d="M40.592,32.108c-0.186-0.123-0.518-0.229-0.738-0.229l-12.929,0.002c-0.224-0.002-0.554,0.104-0.736,0.229
		l-1.176,0.812c-0.184,0.127-0.184,0.33,0,0.453l1.172,0.799c0.187,0.125,0.521,0.225,0.74,0.225h12.927
		c0.225,0.006,0.555-0.1,0.736-0.225l1.18-0.812c0.185-0.127,0.181-0.332-0.004-0.459L40.592,32.108z"/>
</g>
</svg>
