<?xml version="1.0" encoding="utf-8"?>
<!-- Generator: Adobe Illustrator 16.0.4, SVG Export Plug-In . SVG Version: 6.00 Build 0)  -->
<!DOCTYPE svg PUBLIC "-//W3C//DTD SVG 1.1//EN" "http://www.w3.org/Graphics/SVG/1.1/DTD/svg11.dtd">
<svg version="1.1" id="Layer_1" xmlns="http://www.w3.org/2000/svg" xmlns:xlink="http://www.w3.org/1999/xlink" x="0px" y="0px"
	 width="32px" height="32px" viewBox="0 0 32 32" enable-background="new 0 0 32 32" xml:space="preserve">
<g>
	<path fill="#FDAF00" d="M0.016,0v6.107C14.273,6.118,25.865,17.729,25.875,32H32c-0.004-8.82-3.59-16.814-9.385-22.612
		C16.82,3.592,8.834,0.004,0.016,0 M0.004,10.882v6.11c3.987,0.002,7.762,1.57,10.586,4.396c2.821,2.818,4.382,6.598,4.39,10.6
		h0.002V32h6.134c-0.004-5.82-2.369-11.092-6.195-14.92S5.823,10.886,0.004,10.882 M1.248,30.721v-0.002H1.245L1.248,30.721z
		 M7.254,24.734v0.002h0.002L7.254,24.734z M7.254,24.736c0.773,0.773,1.246,1.824,1.25,2.994c-0.004,1.168-0.477,2.217-1.248,2.988
		l-0.002,0.002c-0.774,0.77-1.83,1.24-3.006,1.24c-1.175,0-2.229-0.473-3-1.242C0.476,29.947,0,28.898,0,27.73
		c0-1.17,0.476-2.223,1.248-2.996v0.002c0.771-0.771,1.825-1.246,3-1.246C5.424,23.49,6.479,23.965,7.254,24.736"/>
</g>
</svg>
