<?xml version="1.0" encoding="utf-8"?>
<!-- Generator: Adobe Illustrator 16.0.4, SVG Export Plug-In . SVG Version: 6.00 Build 0)  -->
<!DOCTYPE svg PUBLIC "-//W3C//DTD SVG 1.1//EN" "http://www.w3.org/Graphics/SVG/1.1/DTD/svg11.dtd">
<svg version="1.1" id="Layer_1" xmlns="http://www.w3.org/2000/svg" xmlns:xlink="http://www.w3.org/1999/xlink" x="0px" y="0px"
	 width="28px" height="28px" viewBox="0 0 28 28" enable-background="new 0 0 28 28" xml:space="preserve">
<g>
	<g>
		<g>
			<path fill="#861216" d="M17.414,20.097c5.54,0.002,10.049-4.508,10.049-10.047c0-5.542-4.509-10.05-10.05-10.049
				C11.873-0.001,7.364,4.508,7.364,10.049C7.364,15.59,11.873,20.099,17.414,20.097z M17.414,2.869c3.958,0,7.178,3.224,7.178,7.18
				c0,3.958-3.22,7.178-7.179,7.178s-7.179-3.219-7.179-7.178C10.234,6.093,13.456,2.869,17.414,2.869z"/>
		</g>
		<path fill="#861216" d="M0.658,25.686c0.016-0.286,0.182-0.669,0.363-0.852l6.498-6.496c0.184-0.185,0.569-0.351,0.856-0.363
			l1.837-0.106c0.29-0.017,0.509,0.209,0.486,0.489l-0.118,1.825c-0.018,0.285-0.184,0.671-0.364,0.854l-6.493,6.493
			c-0.184,0.185-0.57,0.349-0.854,0.367l-1.843,0.103c-0.289,0.018-0.51-0.208-0.488-0.491L0.658,25.686z"/>
	</g>
</g>
</svg>
